<svg width="57" height="56" viewBox="0 0 57 56" fill="none" xmlns="http://www.w3.org/2000/svg">
<rect x="0.333252" width="56" height="56" rx="10" fill="white"/>
<g clip-path="url(#clip0_2577_6217)">
<path d="M27.3958 22.3125C27.3958 21.7944 26.9764 21.375 26.4583 21.375H24.9715L27.1211 19.2253C27.3894 18.957 27.47 18.5542 27.3245 18.2036C27.1797 17.853 26.8372 17.625 26.4583 17.625H22.7083C22.1902 17.625 21.7708 18.0444 21.7708 18.5625C21.7708 19.0806 22.1902 19.5 22.7083 19.5H24.1951L22.0454 21.6497C21.7771 21.918 21.6966 22.3208 21.8421 22.6714C21.9869 23.022 22.3291 23.25 22.7083 23.25H26.4583C26.9764 23.25 27.3958 22.8306 27.3958 22.3125Z" fill="#2B50AA"/>
<path d="M29.3423 17.0464C29.4868 17.397 29.8293 17.625 30.2082 17.625H33.9582C34.4763 17.625 34.8957 17.2056 34.8957 16.6875C34.8957 16.1694 34.4763 15.75 33.9582 15.75H32.4714L34.6211 13.6003C34.8894 13.332 34.9699 12.9292 34.8244 12.5786C34.6797 12.228 34.3371 12 33.9582 12H30.2082C29.6902 12 29.2707 12.4194 29.2707 12.9375C29.2707 13.4556 29.6902 13.875 30.2082 13.875H31.695L29.5454 16.0247C29.2771 16.293 29.1965 16.6958 29.3423 17.0464Z" fill="#2B50AA"/>
<path d="M41.5208 27H28.3333C26.7825 27 25.5208 28.2617 25.5208 29.8125V33.5625C25.5208 34.0806 25.9402 34.5 26.4583 34.5H44.3333V29.8125C44.3333 28.2617 43.0715 27 41.5208 27Z" fill="#2B50AA"/>
<path d="M23.6458 33.5625V32.625H14.2083V22.3125C14.2083 21.7944 13.7888 21.375 13.2708 21.375C12.7527 21.375 12.3333 21.7944 12.3333 22.3125V43.0625C12.3333 43.5806 12.7527 44 13.2708 44C13.7888 44 14.2083 43.5806 14.2083 43.0625V40.1875H42.4583V43.0625C42.4583 43.5803 42.8779 44 43.3958 44C43.9136 44 44.3333 43.5803 44.3333 43.0625V36.375H26.4583C24.905 36.375 23.6458 35.1157 23.6458 33.5625Z" fill="#2B50AA"/>
<path d="M23.6458 27.9375C23.6458 29.4907 22.3865 30.75 20.8333 30.75C19.28 30.75 18.0208 29.4907 18.0208 27.9375C18.0208 26.3843 19.28 25.125 20.8333 25.125C22.3865 25.125 23.6458 26.3843 23.6458 27.9375Z" fill="#2B50AA"/>
</g>
<defs>
<clipPath id="clip0_2577_6217">
<rect width="32" height="32" fill="white" transform="translate(12.3333 12)"/>
</clipPath>
</defs>
</svg>
