<svg width="72" height="73" viewBox="0 0 72 73" fill="none" xmlns="http://www.w3.org/2000/svg">
<rect x="0.5" y="0.5" width="71" height="72" rx="23.5" fill="#2B50AA"/>
<rect x="0.5" y="0.5" width="71" height="72" rx="23.5" stroke="#E0E0E0"/>
<g clip-path="url(#clip0_2577_6125)">
<path d="M56.0001 32.4258C56.0001 32.8977 55.9574 33.3682 55.8535 33.8289C55.8393 33.8905 55.825 33.9521 55.8079 34.0137C54.995 37.0663 52.8851 38.8418 49.9196 39.752C49.1351 39.9929 48.3165 40.0755 47.4922 40.0755C40.3581 40.0741 33.2254 40.0755 26.0913 40.0741C25.2911 40.0741 24.7601 39.6204 24.7501 38.9371C24.7402 38.2397 25.2797 37.7692 26.0984 37.7692C33.2054 37.7692 40.3139 37.7678 47.421 37.7692C49.296 37.7692 50.909 37.1363 52.2274 35.8215C54.2305 33.8219 54.1066 30.52 51.9739 28.6885C50.4691 27.396 48.1613 27.4968 46.7775 28.9139C45.7923 29.9221 45.7339 31.4918 46.6493 32.5784C47.3968 33.4662 48.7336 33.5096 49.6377 32.7787C50.2086 32.3166 50.9047 32.325 51.3447 32.8025C51.8059 33.3024 51.7262 34.0221 51.1525 34.5332C48.913 36.5328 45.4349 35.743 44.1251 32.9383C42.8908 30.2946 44.1251 27.277 46.9583 26.0111C49.9124 24.6921 53.2681 25.8165 54.9865 28.7039C55.4862 29.5412 55.8037 30.4416 55.9275 31.4064C55.9275 31.4078 55.9275 31.4078 55.9275 31.4092C55.9574 31.6276 55.9959 31.8447 55.9959 32.0645V32.4258H56.0001Z" fill="white"/>
<path d="M44.635 47.6399C43.5658 44.7063 40.455 42.4995 37.0723 42.4028C34.4242 42.3286 31.7705 42.3776 29.121 42.3846C28.5814 42.386 28.0789 42.7151 27.9223 43.2234C27.6945 43.9642 28.2711 44.6811 29.1409 44.6839C31.6011 44.6881 34.0612 44.6881 36.5213 44.6839C37.3229 44.6825 38.1016 44.8085 38.8548 45.0774C41.5584 46.0394 43.0475 48.3442 42.6432 50.9361C42.3457 52.8475 40.8736 54.3626 39.0427 54.6454C37.5934 54.8681 35.9362 54.0517 35.3383 52.8209C34.8001 51.7119 35.0905 50.3256 36.0231 49.568C36.8232 48.9155 37.6959 48.9855 38.8448 49.7949C39.3474 50.1492 40.0478 50.0749 40.4351 49.6269C40.828 49.1732 40.8095 48.4842 40.3653 48.0571C39.2933 47.0279 37.9991 46.6303 36.5342 46.8851C34.4086 47.2562 32.8012 49.19 32.7244 51.3982C32.6418 53.8067 34.1794 55.8875 36.6381 56.6716C36.6381 56.6716 38.4106 57.4138 40.4721 56.6716C40.8195 56.5652 41.1597 56.4364 41.4843 56.26C44.4428 54.6552 45.8209 50.8969 44.635 47.6399Z" fill="white"/>
<path d="M30.1416 20.6378C30.2825 20.1477 30.0135 19.7444 29.5821 19.3705C29.1037 18.9574 28.6709 18.4926 28.2239 18.0459C27.6886 17.511 27.6587 16.8122 28.1427 16.3361C28.6268 15.8614 29.3344 15.8908 29.8811 16.4159C30.2911 16.8094 30.7011 17.2043 31.094 17.6132C31.2549 17.7798 31.356 17.8008 31.5268 17.6216C31.9184 17.2099 32.3298 16.8178 32.7384 16.423C33.2851 15.895 33.9884 15.8586 34.4767 16.3291C34.965 16.801 34.9437 17.504 34.4112 18.0389C33.846 18.606 33.2766 19.1689 32.6985 19.7234C32.549 19.8676 32.4537 20.0119 32.4836 20.2233C32.4964 20.3115 32.485 20.4025 32.485 20.4921C32.485 21.604 32.4864 21.6012 33.483 22.1235C33.5741 22.1711 33.6467 22.1879 33.7321 22.1305C33.7649 22.1095 33.7976 22.0871 33.8332 22.0731C34.7529 21.7244 35.2996 21.1111 35.4007 20.1085C35.4477 19.6436 35.6328 19.1927 35.7666 18.7376C35.9545 18.0977 36.5639 17.7252 37.1675 17.8722C37.8139 18.0291 38.1869 18.6172 38.0317 19.2893C37.8936 19.8872 37.727 20.4795 37.5519 21.0691C37.4878 21.2847 37.5405 21.3533 37.7555 21.4037C38.325 21.5367 38.8887 21.6908 39.4511 21.8462C40.1815 22.0478 40.5545 22.6402 40.3751 23.2983C40.2042 23.9256 39.5721 24.2561 38.8603 24.0754C38.0801 23.8766 37.3013 23.6708 36.5254 23.4593C36.3133 23.4019 36.1225 23.3893 35.9417 23.5349C35.8719 23.591 35.7865 23.6288 35.7082 23.6736C34.7116 24.2337 34.7145 24.2337 34.7814 25.3483C34.7899 25.4799 34.8668 25.5233 34.9551 25.5751C35.3153 25.781 35.6812 25.977 36.0342 26.1927C36.188 26.2879 36.3247 26.2613 36.4784 26.2207C37.2814 26.0078 38.0844 25.7936 38.8902 25.5891C39.575 25.4155 40.2014 25.7474 40.3736 26.3621C40.5545 27.0048 40.1957 27.6111 39.4981 27.81C38.9357 27.9696 38.3719 28.125 37.801 28.2497C37.522 28.3113 37.4921 28.4247 37.5661 28.6683C37.7242 29.1822 37.858 29.7031 37.9975 30.2226C38.2011 30.9802 37.8922 31.5907 37.2131 31.7825C36.5553 31.9688 35.9502 31.5823 35.7395 30.829C35.5331 30.0896 35.3281 29.3489 35.1359 28.6053C35.0775 28.3799 34.985 28.2035 34.7515 28.1194C34.6917 28.0984 34.639 28.055 34.5835 28.0228C33.5926 27.4585 33.594 27.4613 32.616 28.0438C32.522 28.0998 32.4821 28.1502 32.4864 28.2483C32.4878 28.2861 32.4864 28.3253 32.4864 28.3631C32.4537 29.7031 32.4537 29.7031 33.4132 30.6455C33.7549 30.9802 34.0994 31.3107 34.434 31.6523C34.9423 32.1718 34.9579 32.8692 34.4824 33.3341C34.0055 33.8003 33.2993 33.7807 32.7726 33.2766C32.3426 32.8664 31.9184 32.4505 31.5026 32.0262C31.3617 31.882 31.2706 31.8764 31.1268 32.0234C30.758 32.4029 30.3751 32.7697 29.9964 33.1394C29.3529 33.7681 28.6666 33.841 28.147 33.3369C27.6259 32.8314 27.6928 32.1424 28.3264 31.5179C28.8603 30.9914 29.3899 30.4621 29.9309 29.944C30.0818 29.7998 30.1715 29.6527 30.143 29.4413C30.1316 29.3531 30.1416 29.2621 30.1416 29.1724C30.1416 28.0592 30.1402 28.0606 29.1422 27.5411C29.051 27.4935 28.9784 27.4795 28.893 27.5355C28.8603 27.5565 28.8275 27.5789 28.7919 27.5929C27.8708 27.9402 27.3284 28.5577 27.2244 29.5589C27.176 30.0238 26.9924 30.4747 26.8586 30.9298C26.6678 31.5739 26.0627 31.9408 25.4562 31.7924C24.8099 31.6355 24.4383 31.0432 24.5949 30.3739C24.7188 29.839 24.8469 29.2999 25.0305 28.7832C25.1658 28.4009 25.0547 28.2777 24.6803 28.2049C24.1834 28.1082 23.6994 27.9556 23.2096 27.8282C22.4565 27.6321 22.0664 27.0384 22.2501 26.3677C22.4252 25.7278 23.0616 25.4099 23.8033 25.6017C24.5707 25.7992 25.3366 26.0008 26.0997 26.2109C26.3133 26.2697 26.5026 26.2767 26.6834 26.1352C26.7546 26.0806 26.8386 26.0428 26.9184 25.998C27.9164 25.4239 27.9121 25.4239 27.8423 24.3205C27.8338 24.1889 27.7555 24.1455 27.6672 24.095C27.307 23.8892 26.9397 23.696 26.5895 23.4761C26.4186 23.3683 26.2677 23.4173 26.1068 23.4593C25.3153 23.6652 24.5266 23.8808 23.7336 24.081C23.053 24.2533 22.4223 23.9172 22.2515 23.3053C22.0707 22.6626 22.438 22.0506 23.1285 21.8588C23.7037 21.6992 24.2788 21.5367 24.8625 21.4079C25.1174 21.3519 25.1302 21.2497 25.0661 21.0397C24.9095 20.5117 24.77 19.9796 24.6276 19.4475C24.424 18.69 24.7316 18.0809 25.4121 17.8876C26.0727 17.7 26.6735 18.0851 26.8856 18.8412C27.0963 19.5932 27.2999 20.3465 27.4992 21.1013C27.5519 21.2987 27.6345 21.4541 27.8395 21.5311C27.9121 21.5578 27.9762 21.6054 28.0431 21.6446C29.0382 22.2103 29.0354 22.2061 30.0106 21.6292C30.1259 21.5606 30.1402 21.4877 30.1402 21.3841C30.1416 21.1671 30.1416 20.95 30.1416 20.6378ZM31.3033 25.9868C31.9354 25.9924 32.4722 25.4757 32.4836 24.854C32.4949 24.2337 31.9739 23.7002 31.3418 23.6834C30.6954 23.6666 30.1416 24.1987 30.1416 24.8344C30.143 25.4561 30.6726 25.9812 31.3033 25.9868Z" fill="white"/>
<path d="M20.7253 44.6844C19.5949 44.6844 18.463 44.6858 17.3326 44.6844C16.5396 44.683 16.0072 44.2237 16 43.5418C15.9944 42.8584 16.5297 42.3809 17.3127 42.3809C19.6134 42.3795 21.9155 42.3795 24.2162 42.3809C25.002 42.3809 25.5359 42.857 25.5288 43.5418C25.5217 44.2265 24.9921 44.683 24.1962 44.6844C23.0388 44.6858 21.8827 44.6844 20.7253 44.6844Z" fill="white"/>
<path d="M19.2007 37.7691C19.8499 37.7691 20.5006 37.7649 21.1498 37.7705C21.8758 37.7761 22.3983 38.2536 22.404 38.9103C22.4111 39.5824 21.883 40.0711 21.1327 40.0739C19.8471 40.0781 18.5601 40.0781 17.2745 40.0739C16.5242 40.0711 15.996 39.5852 16.0003 38.9145C16.0045 38.2466 16.5342 37.7747 17.2901 37.7705C17.9265 37.7663 18.5629 37.7691 19.2007 37.7691Z" fill="white"/>
</g>
<defs>
<clipPath id="clip0_2577_6125">
<rect width="40" height="41" fill="white" transform="translate(16 16)"/>
</clipPath>
</defs>
</svg>
