<svg width="20" height="20" viewBox="0 0 20 20" fill="none" xmlns="http://www.w3.org/2000/svg">
<g clip-path="url(#clip0_2577_5966)">
<mask id="mask0_2577_5966" style="mask-type:luminance" maskUnits="userSpaceOnUse" x="0" y="0" width="20" height="20">
<path d="M20 0H0V20H20V0Z" fill="white"/>
</mask>
<g mask="url(#mask0_2577_5966)">
<path d="M0.272626 10.5932C1.45575 11.608 2.79669 12.7583 5.39048 12.7583C7.98434 12.7583 9.32536 11.608 10.5085 10.5932C11.6274 9.63355 12.5938 8.80469 14.6093 8.80469C16.6249 8.80469 17.5912 9.63355 18.7101 10.5932C19.0376 10.8741 19.5308 10.8364 19.8117 10.5089C20.0926 10.1814 20.0549 9.68816 19.7274 9.40727C18.5442 8.39246 17.2032 7.24219 14.6093 7.24219C12.0154 7.24219 10.6744 8.39242 9.49126 9.40727C8.37235 10.367 7.40602 11.1958 5.39048 11.1958C3.37497 11.1958 2.40876 10.367 1.28993 9.40727C0.96243 9.12637 0.469227 9.16406 0.18829 9.4916C-0.0926476 9.8191 -0.0548741 10.3123 0.272626 10.5932Z" fill="#2B50AA"/>
<path d="M0.272626 6.3198C1.45571 7.33465 2.79665 8.48488 5.39048 8.48488C7.98434 8.48488 9.32536 7.33465 10.5085 6.3198C11.6274 5.36012 12.5937 4.53125 14.6093 4.53125C16.6248 4.53125 17.5911 5.36008 18.7101 6.3198C19.0376 6.60078 19.5308 6.56293 19.8117 6.23539C20.0926 5.90789 20.0548 5.41461 19.7273 5.13375C18.5441 4.11891 17.2031 2.96875 14.6093 2.96875C12.0154 2.96875 10.6744 4.11898 9.49126 5.13383C8.37235 6.09352 7.40602 6.92238 5.39048 6.92238C3.37501 6.92238 2.40876 6.09355 1.28993 5.13383C0.96243 4.85289 0.469188 4.89063 0.18829 5.21816C-0.0926476 5.54566 -0.0548741 6.03891 0.272626 6.3198Z" fill="#2B50AA"/>
<path d="M19.7273 13.6797C18.5442 12.6649 17.2031 11.5146 14.6093 11.5146C12.0154 11.5146 10.6744 12.6649 9.49123 13.6797C8.37232 14.6394 7.40599 15.4683 5.39044 15.4683C3.37505 15.4683 2.40877 14.6395 1.28994 13.6798C0.962439 13.399 0.469195 13.4366 0.188257 13.7641C-0.092641 14.0916 -0.0548675 14.5848 0.272632 14.8657C1.45576 15.8806 2.79673 17.0308 5.39044 17.0308C7.98431 17.0308 9.32533 15.8805 10.5085 14.8657C11.6274 13.906 12.5937 13.0771 14.6093 13.0771C16.6249 13.0771 17.5912 13.906 18.7101 14.8657C19.0376 15.1466 19.5308 15.1089 19.8117 14.7814C20.0926 14.4538 20.0549 13.9606 19.7273 13.6797Z" fill="#2B50AA"/>
</g>
</g>
<defs>
<clipPath id="clip0_2577_5966">
<rect width="20" height="20" fill="white"/>
</clipPath>
</defs>
</svg>
