<svg width="30" height="30" viewBox="0 0 30 30" fill="none" xmlns="http://www.w3.org/2000/svg">
<g clip-path="url(#clip0_2577_6432)">
<path d="M26.6863 16.8336C26.2079 15.5502 25.6105 14.3251 24.9296 13.1405C23.0109 9.79417 20.7227 6.70351 18.318 3.69385C18.1307 3.46098 18.0421 3.4787 17.8674 3.69892C16.0424 5.9897 14.3034 8.34123 12.7138 10.8016C11.5469 12.6039 10.4762 14.4567 9.65353 16.4514C8.97263 18.1017 8.81569 19.7673 9.30675 21.4936C10.4104 25.3917 13.9744 28.0546 18.1003 28.0521C18.4749 28.0394 18.8496 28.0369 19.2242 27.9863C22.206 27.5914 24.5348 26.1587 26.0383 23.5439C27.2558 21.4278 27.5647 19.18 26.6888 16.831L26.6863 16.8336ZM19.8165 24.0274C19.7254 24.0122 19.614 24.0046 19.5786 23.9236C19.5381 23.8224 19.6596 23.7743 19.7203 23.7135C20.1658 23.2731 20.6392 22.8554 21.0619 22.3947C22.5553 20.7671 23.0869 18.7978 23.0514 16.6412C23.0514 16.5602 23.0413 16.4792 23.0363 16.3982C23.0363 16.3779 23.0413 16.3602 23.0489 16.3172C23.4742 16.5045 23.7425 16.8209 23.9652 17.1702C23.9829 17.1981 23.9981 17.2259 24.0158 17.2538C24.1627 17.5119 24.5753 18.3498 24.5373 19.5952C24.3854 22.7947 21.7732 23.8375 21.5302 23.9261C20.9961 24.0856 20.424 24.1261 19.814 24.0249L19.8165 24.0274Z" fill="#2B50AA"/>
<path d="M12.0785 8.06437C11.671 7.47205 11.2989 6.85696 10.8964 6.26212C10.1345 5.13571 9.33973 4.03462 8.4867 2.94871C8.42088 2.86518 8.29179 2.86518 8.22598 2.94618C8.18295 2.99934 8.13992 3.04996 8.09942 3.10312C7.52735 3.86502 6.94263 4.6168 6.39082 5.39137C5.01635 7.32271 3.71023 9.29455 2.70785 11.4537C2.06492 12.8383 1.66245 14.2431 1.99404 15.7999C2.50788 18.2248 4.44176 20.2422 6.80595 20.751C7.03629 20.8016 7.07426 20.751 7.05907 20.4776C7.04642 20.2447 7.03629 20.0093 7.04895 19.7765C7.13754 18.0856 7.70201 16.5365 8.38038 15.0253C9.39035 12.775 10.6686 10.6766 12.0634 8.64655C12.2102 8.4314 12.2355 8.28459 12.0836 8.06437H12.0785Z" fill="#2B50AA"/>
</g>
<defs>
<clipPath id="clip0_2577_6432">
<rect width="25.3125" height="25.3125" fill="white" transform="translate(1.875 2.8125)"/>
</clipPath>
</defs>
</svg>
