<svg width="72" height="72" viewBox="0 0 72 72" fill="none" xmlns="http://www.w3.org/2000/svg">
<rect x="0.5" y="0.5" width="71" height="71" rx="23.5" fill="#2B50AA"/>
<rect x="0.5" y="0.5" width="71" height="71" rx="23.5" stroke="#E0E0E0"/>
<g clip-path="url(#clip0_2577_6137)">
<mask id="mask0_2577_6137" style="mask-type:luminance" maskUnits="userSpaceOnUse" x="16" y="16" width="40" height="40">
<path d="M56 16H16V56H56V16Z" fill="white"/>
</mask>
<g mask="url(#mask0_2577_6137)">
<path d="M47.7418 23.0449H45.3935C44.7445 23.0449 44.2192 23.5701 44.2192 24.2191C44.2192 24.8681 44.7444 25.3934 45.3935 25.3934H47.7418C48.3908 25.3934 48.916 24.8682 48.916 24.2191C48.9159 23.5701 48.3908 23.0449 47.7418 23.0449Z" fill="white"/>
<path d="M35.8762 18.9968L34.7021 16.6484C34.4097 16.0682 33.7068 15.8355 33.1265 16.1233C32.5463 16.4134 32.3112 17.1186 32.6014 17.6988L33.7756 20.0472C34.0653 20.6251 34.767 20.8625 35.3511 20.5723C35.9312 20.2823 36.1663 19.577 35.8762 18.9968Z" fill="white"/>
<path d="M43.5703 16.1233C42.9923 15.8355 42.2849 16.0683 41.9948 16.6484L40.8206 18.9968C40.5305 19.577 40.7656 20.2822 41.3457 20.5723C41.9316 20.8633 42.6324 20.6231 42.9213 20.0472L44.0955 17.6988C44.3855 17.1186 44.1505 16.4133 43.5703 16.1233Z" fill="white"/>
<path d="M31.3033 23.0449H28.955C28.306 23.0449 27.7808 23.5701 27.7808 24.2191C27.7808 24.8681 28.3059 25.3934 28.955 25.3934H31.3033C31.9523 25.3934 32.4775 24.8682 32.4775 24.2191C32.4775 23.5701 31.9523 23.0449 31.3033 23.0449Z" fill="white"/>
<path d="M24.2582 34.8643H19.5614C18.913 34.8643 18.3872 35.39 18.3872 36.0385V54.8253C18.3872 55.4737 18.9129 55.9995 19.5614 55.9995H24.2581C24.9066 55.9995 25.4323 55.4738 25.4323 54.8253V36.0384C25.4323 35.39 24.9067 34.8643 24.2582 34.8643Z" fill="white"/>
<path d="M53.5894 37.9774C53.3823 36.1559 51.6808 34.8649 49.8476 34.8649H40.6933C41.4713 33.4719 41.8889 29.5318 41.8703 27.9223C41.8396 25.258 39.6333 23.123 36.969 23.123H36.0001C35.3511 23.123 34.8259 23.6482 34.8259 24.2973C34.8259 27.0125 33.7686 31.9134 31.7747 33.9075C30.4326 35.2496 29.2852 35.7359 27.7808 36.4878V54.1063C30.0841 54.8741 33.0086 56.0002 37.4662 56.0002H45.1471C47.678 56.0002 49.6491 53.6563 48.6684 51.1797C50.1625 50.7727 51.2644 49.4024 51.2644 47.781C51.2644 47.3234 51.1761 46.8854 51.0167 46.4829C53.5346 45.7969 54.4614 42.6879 52.7138 40.7358C53.3559 40.0186 53.7099 39.0375 53.5894 37.9774Z" fill="white"/>
</g>
</g>
<defs>
<clipPath id="clip0_2577_6137">
<rect width="40" height="40" fill="white" transform="translate(16 16)"/>
</clipPath>
</defs>
</svg>
