<svg width="56" height="56" viewBox="0 0 56 56" fill="none" xmlns="http://www.w3.org/2000/svg">
<rect x="-0.000244141" width="56" height="56" rx="10" fill="white"/>
<g clip-path="url(#clip0_2577_6226)">
<path d="M16.0035 37.3105L15.7039 38.5096C15.5923 38.9562 15.6907 39.4198 15.9739 39.7825C16.2571 40.1452 16.6835 40.3533 17.1433 40.3533C17.8252 40.3533 18.4174 39.891 18.5827 39.2293L19.0589 37.3257H16.394C16.2628 37.3257 16.1322 37.3206 16.0035 37.3105Z" fill="#2B50AA"/>
<path d="M39.9961 37.3105C39.8675 37.3206 39.7369 37.3257 39.6057 37.3257H36.9414L37.417 39.2293C37.5823 39.891 38.1745 40.3533 38.8564 40.3533C39.3162 40.3533 39.7426 40.1452 40.0258 39.7825C40.309 39.4198 40.4074 38.9562 40.2958 38.5096L39.9961 37.3105Z" fill="#2B50AA"/>
<path d="M14.9431 23.2097C16.5484 23.3428 17.9013 24.5312 18.2218 26.132L18.9982 30.0149C19.0853 30.4501 19.4707 30.7662 19.9147 30.7662H36.0847C36.5287 30.7662 36.9141 30.4501 37.0012 30.0149L37.7776 26.132C38.0753 24.6441 39.2656 23.5125 40.7207 23.2532L40.8475 22.5443C41.0645 21.3276 40.734 20.0862 39.9405 19.1382C39.147 18.1902 37.9826 17.6465 36.7464 17.6465H18.9042C17.6402 17.6465 16.4594 18.2104 15.6647 19.1931C14.8699 20.1764 14.5659 21.4493 14.8308 22.6849L14.9431 23.2097Z" fill="#2B50AA"/>
<path d="M43.2872 25.0435C42.7894 24.5116 42.0863 24.2065 41.3578 24.2065C41.0691 24.2065 40.7894 24.2543 40.5264 24.342L40.5266 24.3414C39.6409 24.6315 38.9439 25.4141 38.7672 26.3303L37.9907 30.2129C37.8096 31.1183 37.008 31.7754 36.0846 31.7754H19.915C18.9916 31.7754 18.19 31.1183 18.0089 30.2129L17.2324 26.3303C17.0376 25.3076 16.1894 24.4595 15.1684 24.2601L15.1685 24.2603C14.2843 24.0727 13.3268 24.3804 12.7124 25.0435C12.2148 25.5755 11.9571 26.2974 12.0055 27.0242L12.3571 32.2975C12.3664 34.4681 14.0979 36.2388 16.2529 36.3133L16.2527 36.3144C16.2993 36.3163 16.3466 36.3169 16.3939 36.3169H19.3112H36.6891H39.6057C39.653 36.3169 39.7003 36.3163 39.7469 36.3144L39.7467 36.3133C41.9017 36.2388 43.6332 34.4681 43.6424 32.2975L43.994 27.0242C44.0424 26.2974 43.7848 25.5754 43.2872 25.0435Z" fill="#2B50AA"/>
</g>
<defs>
<clipPath id="clip0_2577_6226">
<rect width="32" height="32" fill="white" transform="translate(11.9998 13)"/>
</clipPath>
</defs>
</svg>
