<svg width="20" height="20" viewBox="0 0 20 20" fill="none" xmlns="http://www.w3.org/2000/svg">
<g clip-path="url(#clip0_2577_5976)">
<g clip-path="url(#clip1_2577_5976)">
<path d="M14.3584 10.3615C12.7399 12.3073 11.1226 14.2543 9.50351 16.1995C9.31518 16.4257 9.07216 16.4918 8.82416 16.3991C8.58238 16.3089 8.4444 16.0975 8.4444 15.802C8.44316 14.1313 8.44129 12.4606 8.44751 10.7898C8.44813 10.6192 8.41394 10.5599 8.22872 10.5642C7.61651 10.5772 7.00429 10.5655 6.39207 10.5704C6.12107 10.5729 5.90416 10.487 5.78233 10.236C5.65989 9.98444 5.73012 9.76254 5.90291 9.55548C7.51395 7.62019 9.1225 5.68305 10.7329 3.74777C10.9268 3.51474 11.1581 3.44243 11.4067 3.52772C11.664 3.61673 11.8045 3.8238 11.8051 4.13038C11.8063 4.97223 11.8057 5.81409 11.8057 6.65595C11.8057 7.49163 11.8101 8.32669 11.802 9.16236C11.8001 9.31874 11.8324 9.37128 12.0009 9.36819C12.6261 9.35707 13.2514 9.36634 13.8767 9.36263C14.1415 9.36139 14.3491 9.45411 14.4665 9.69579C14.5846 9.9387 14.5268 10.1587 14.3584 10.3615Z" fill="#2B50AA"/>
<path d="M19.37 7.10534C18.3376 3.618 16.0839 1.36439 12.6138 0.344516L12.6157 0.343897C12.5467 0.3235 12.4783 0.303721 12.4093 0.285796C12.3988 0.282705 12.3882 0.279615 12.3776 0.276524C12.3428 0.267253 12.3074 0.259217 12.272 0.250564C12.2508 0.245001 12.2291 0.240056 12.2079 0.234493C12.1999 0.232639 12.1912 0.230784 12.1831 0.22893C10.9748 -0.0566341 9.85975 -0.0189298 9.20962 0.0459712C9.1313 0.050916 9.05361 0.0608057 8.97592 0.0725496C8.7503 0.101601 8.62102 0.128179 8.62102 0.128797C5.42194 0.67891 3.06194 2.40589 1.53232 5.29677C1.45028 5.45191 1.37942 5.61262 1.29054 5.79929C1.22963 5.66145 1.18364 5.55575 1.1364 5.45006C0.982877 5.10948 0.672106 4.96794 0.360091 5.09465C0.042483 5.22383 -0.0843117 5.55761 0.0598862 5.90436C0.286749 6.44891 0.51672 6.99161 0.749177 7.53369C0.892754 7.8687 1.28184 8.02384 1.61996 7.88415C2.16008 7.65978 2.69896 7.43232 3.23721 7.20362C3.60019 7.04909 3.74936 6.72521 3.6089 6.40688C3.47216 6.09845 3.13528 5.98534 2.78224 6.12935C2.65421 6.18127 2.52555 6.23258 2.36208 6.2981C2.41429 6.17942 2.44661 6.10216 2.48142 6.02613C3.95758 2.85093 7.253 0.92677 10.7573 1.20059C12.7238 1.3545 14.43 2.10982 15.8701 3.4474C17.0411 4.53526 17.8174 5.86233 18.24 7.3977C18.3401 7.76239 18.6509 7.94349 18.9821 7.84954C19.2892 7.763 19.4694 7.44097 19.37 7.10534Z" fill="#2B50AA"/>
<path d="M0.630475 12.8942C1.66348 16.3815 3.91657 18.6351 7.38726 19.655L7.3854 19.6556C7.45439 19.676 7.52276 19.6958 7.59175 19.7137C7.60232 19.7168 7.61288 19.7199 7.62345 19.723C7.65826 19.7323 7.69369 19.7403 7.72911 19.749C7.75025 19.7545 7.772 19.7595 7.79313 19.765C7.80121 19.7669 7.80991 19.7687 7.81799 19.7706C9.02627 20.0562 10.1413 20.0185 10.7915 19.9536C10.8698 19.9486 10.9475 19.9387 11.0252 19.927C11.2508 19.8979 11.3801 19.8714 11.3801 19.8707C14.5791 19.32 16.9391 17.593 18.4688 14.7021C18.5508 14.547 18.6216 14.3863 18.7105 14.1996C18.7714 14.3375 18.8174 14.4432 18.8647 14.5489C19.0182 14.8894 19.329 15.031 19.641 14.9043C19.9586 14.7751 20.0854 14.4413 19.9412 14.0945C19.7143 13.55 19.4843 13.0073 19.2519 12.4652C19.1083 12.1302 18.7192 11.9751 18.3811 12.1148C17.841 12.3391 17.3021 12.5666 16.7639 12.7953C16.4009 12.9498 16.2517 13.2737 16.3922 13.592C16.5289 13.9005 16.8658 14.0136 17.2188 13.8696C17.3469 13.8176 17.4755 13.7663 17.639 13.7008C17.5868 13.8195 17.5545 13.8968 17.5197 13.9728C16.0429 17.148 12.7474 19.0721 9.24319 18.7983C7.27663 18.6444 5.5705 17.8891 4.13038 16.5515C2.95939 15.4636 2.18309 14.1366 1.76044 12.6012C1.66037 12.2365 1.3496 12.0554 1.01832 12.1494C0.711276 12.2365 0.531028 12.5586 0.630475 12.8942Z" fill="#2B50AA"/>
</g>
</g>
<defs>
<clipPath id="clip0_2577_5976">
<rect width="20" height="20" fill="white"/>
</clipPath>
<clipPath id="clip1_2577_5976">
<rect width="20" height="20" fill="white"/>
</clipPath>
</defs>
</svg>
