<svg width="20" height="20" viewBox="0 0 20 20" fill="none" xmlns="http://www.w3.org/2000/svg">
<g clip-path="url(#clip0_2577_5984)">
<path d="M14.1903 6.84437C14.328 6.84437 14.4098 6.84437 14.4906 6.84437C15.7389 6.84437 16.9863 6.84337 18.2346 6.84437C18.5918 6.84437 18.8572 7.03798 18.961 7.35934C19.0578 7.65674 18.95 7.9791 18.6886 8.16672C18.5549 8.26353 18.4042 8.30545 18.2385 8.30545C16.3057 8.30545 14.3729 8.30644 12.4401 8.30345C12.002 8.30345 11.6927 7.99207 11.6927 7.55195C11.6897 5.61882 11.6897 3.68569 11.6927 1.75255C11.6927 1.32142 12.008 1.00205 12.4151 0.99906C12.8302 0.995068 13.1495 1.32042 13.1515 1.76353C13.1545 3.01203 13.1525 4.25954 13.1525 5.50804C13.1525 5.58988 13.1525 5.67072 13.1525 5.79746C13.2433 5.71463 13.3032 5.66273 13.3601 5.60684C14.807 4.15874 16.2518 2.70864 17.6997 1.26153C18.1448 0.817423 18.8073 0.960138 18.97 1.53399C19.0548 1.83539 18.952 2.08289 18.7355 2.29846C17.9472 3.08189 17.1619 3.86732 16.3766 4.65375C15.6611 5.36932 14.9477 6.08589 14.1903 6.84437Z" fill="#2B50AA"/>
<path d="M4.75355 14.1513C4.67172 14.1513 4.5889 14.1513 4.50708 14.1513C3.27474 14.1513 2.0424 14.1513 0.811055 14.1513C0.33109 14.1513 -0.00119271 13.8439 0.00379653 13.4127C0.00878576 12.9896 0.335082 12.6912 0.80407 12.6912C2.70597 12.6902 4.60686 12.6902 6.50876 12.6912C7.00569 12.6912 7.30803 12.9896 7.30803 13.4836C7.31003 15.3928 7.31003 17.302 7.30803 19.2111C7.30803 19.6712 6.99271 20.0006 6.56963 19.9966C6.15552 19.9926 5.84918 19.6662 5.84819 19.2181C5.84619 17.9786 5.84819 16.7381 5.84819 15.4986C5.84819 15.4157 5.84819 15.3329 5.84819 15.2321C5.7474 15.256 5.7025 15.3299 5.64862 15.3848C4.20174 16.8319 2.75486 18.279 1.31197 19.7281C1.08347 19.9576 0.826022 20.0654 0.508707 19.9616C0.00878571 19.798 -0.15985 19.1952 0.17842 18.794C0.232303 18.7301 0.29417 18.6732 0.353043 18.6143C1.76799 17.2012 3.18393 15.787 4.59988 14.3738C4.65875 14.3159 4.7266 14.267 4.78947 14.2131C4.7775 14.1932 4.76652 14.1732 4.75454 14.1523L4.75355 14.1513Z" fill="#2B50AA"/>
<path d="M13.6615 18.9986C12.961 18.9986 12.2615 18.9986 11.561 18.9986C11.0321 18.9986 10.6969 18.7171 10.6939 18.273C10.6909 17.8249 11.0252 17.5375 11.55 17.5375C12.927 17.5375 14.3051 17.5375 15.6821 17.5375C16.2589 17.5375 16.5373 17.26 16.5373 16.6852C16.5373 15.277 16.5373 13.8688 16.5383 12.4616C16.5383 12.1183 16.7129 11.8559 17.0023 11.7431C17.2817 11.6343 17.592 11.7032 17.7975 11.9247C17.9263 12.0634 17.9981 12.2281 17.9981 12.4197C17.9981 13.9117 18.0121 15.4038 17.9911 16.8948C17.9752 18.0335 17.0182 18.9706 15.8757 18.9946C15.1383 19.0096 14.3999 18.9976 13.6615 18.9976V18.9996V18.9986Z" fill="#2B50AA"/>
<path d="M5.33925 1.99865C6.03974 1.99865 6.73923 1.99865 7.43972 1.99865C7.96858 1.99865 8.30385 2.28009 8.30685 2.7242C8.30984 3.17231 7.97556 3.45973 7.45069 3.45973C6.07367 3.45973 4.69564 3.45973 3.31861 3.45973C2.74186 3.45973 2.46346 3.73718 2.46346 4.31203C2.46346 5.72021 2.46346 7.1284 2.46246 8.53558C2.46246 8.87889 2.28784 9.14137 1.99846 9.25414C1.71906 9.36293 1.40873 9.29406 1.20318 9.07251C1.07445 8.93378 1.00261 8.76911 1.00261 8.5775C1.00261 7.08548 0.988639 5.59346 1.00959 4.10245C1.02556 2.96372 1.98249 2.0266 3.12503 2.00265C3.86244 1.98768 4.60084 1.99965 5.33925 1.99965V1.99766V1.99865Z" fill="#2B50AA"/>
</g>
<defs>
<clipPath id="clip0_2577_5984">
<rect width="19" height="19" fill="white" transform="translate(0 1)"/>
</clipPath>
</defs>
</svg>
