<svg width="72" height="73" viewBox="0 0 72 73" fill="none" xmlns="http://www.w3.org/2000/svg">
<rect x="0.5" y="1" width="71" height="71" rx="23.5" fill="#2B50AA"/>
<rect x="0.5" y="1" width="71" height="71" rx="23.5" stroke="#E0E0E0"/>
<path d="M44.7675 25.0188C42.0051 25.0188 39.2442 25.0234 36.4818 25.0126C36.1766 25.011 36.0332 25.082 35.9269 25.3981C35.1423 27.7248 33.0196 29.242 30.6117 29.2297C28.2286 29.2189 26.1259 27.6909 25.349 25.3811C25.2504 25.0897 25.124 25.0095 24.828 25.011C23.046 25.0265 21.2625 25.0249 19.4789 25.0157C18.3783 25.0095 17.6877 23.961 18.1532 23.0112C18.4245 22.4577 18.8901 22.2094 19.5036 22.2094C21.2717 22.2125 23.0398 22.2032 24.8079 22.2171C25.1178 22.2202 25.255 22.1369 25.3598 21.8255C26.1306 19.5249 28.2471 18.0031 30.6333 18C33.0273 17.9969 35.1361 19.5049 35.9192 21.8116C36.0302 22.1369 36.1751 22.2187 36.5034 22.2187C41.9388 22.2079 47.3757 22.2109 52.8111 22.2125C53.0007 22.2125 53.1949 22.2063 53.3784 22.2433C54.0828 22.3867 54.5669 23.0544 54.4944 23.7575C54.422 24.4637 53.8362 25.011 53.0963 25.0141C51.1524 25.0249 49.2086 25.0188 47.2663 25.0188C46.4338 25.0188 45.5999 25.0188 44.7675 25.0188ZM30.6256 26.4219C32.1748 26.4281 33.445 25.1652 33.4466 23.6187C33.4481 22.0861 32.2041 20.8248 30.678 20.8078C29.1257 20.7924 27.8463 22.0429 27.8355 23.5879C27.8247 25.139 29.081 26.4142 30.6256 26.4219Z" fill="white"/>
<path d="M27.7567 37.6549C25.0097 37.6549 22.2628 37.658 19.5143 37.6534C18.4198 37.6518 17.7107 36.6727 18.1176 35.7214C18.3735 35.1216 18.856 34.8456 19.5081 34.8471C21.2038 34.8502 22.8979 34.8486 24.5935 34.8486C28.4072 34.8486 32.221 34.8456 36.0362 34.8548C36.3476 34.8564 36.4832 34.7715 36.5865 34.4632C37.3604 32.1611 39.4769 30.6392 41.8631 30.6377C44.2571 30.6346 46.3659 32.1441 47.149 34.4508C47.26 34.7762 47.4064 34.861 47.7348 34.8579C49.5167 34.8409 51.3003 34.844 53.0838 34.8533C53.8268 34.8579 54.4157 35.3929 54.4958 36.096C54.576 36.8007 54.1027 37.4668 53.3952 37.621C53.2272 37.658 53.0468 37.6549 52.8726 37.6549C51.1477 37.658 49.4243 37.6626 47.6993 37.6503C47.4172 37.6487 47.2708 37.7027 47.1675 38.0049C46.3767 40.3471 44.2771 41.8659 41.8708 41.8659C39.4692 41.8659 37.3557 40.3378 36.5726 38.0049C36.4709 37.7012 36.3245 37.6472 36.0424 37.6487C33.28 37.658 30.5191 37.6549 27.7567 37.6549ZM44.6748 36.2487C44.6733 34.6991 43.4062 33.4393 41.857 33.444C40.3278 33.4501 39.073 34.7022 39.0637 36.2302C39.0545 37.7798 40.3139 39.0534 41.86 39.0565C43.4077 39.0611 44.6764 37.7952 44.6748 36.2487Z" fill="white"/>
<path d="M44.7192 50.2888C41.9722 50.2888 39.2253 50.2935 36.4767 50.2827C36.1684 50.2811 36.0297 50.3613 35.9233 50.6712C35.1433 52.981 33.0392 54.4967 30.6483 54.4998C28.2466 54.5029 26.127 52.9748 25.3439 50.6466C25.2437 50.3505 25.1112 50.2796 24.8198 50.2811C23.0378 50.295 21.2543 50.295 19.4708 50.2842C18.3331 50.2765 17.6456 49.1525 18.1898 48.198C18.4765 47.6969 18.9266 47.4764 19.5016 47.478C21.2697 47.4826 23.0378 47.4718 24.8059 47.4872C25.1204 47.4903 25.2514 47.3978 25.3547 47.0925C26.1301 44.792 28.2466 43.2701 30.6344 43.2686C33.0268 43.267 35.1356 44.7765 35.9172 47.0848C36.0282 47.4147 36.1792 47.4887 36.5045 47.4872C41.9399 47.4764 47.3768 47.4795 52.8122 47.481C53.0018 47.481 53.196 47.4749 53.3795 47.5119C54.067 47.6537 54.5433 48.2952 54.494 48.9859C54.4446 49.6767 53.8789 50.2333 53.176 50.2827C53.0449 50.2919 52.9124 50.2873 52.7813 50.2873C50.096 50.2888 47.4076 50.2888 44.7192 50.2888ZM30.6452 46.0779C29.096 46.0764 27.8335 47.3407 27.835 48.8903C27.8381 50.4199 29.0883 51.6796 30.6144 51.6904C32.1636 51.7012 33.44 50.443 33.4461 48.898C33.4523 47.3484 32.1929 46.0794 30.6452 46.0779Z" fill="white"/>
</svg>
