<svg width="57" height="56" viewBox="0 0 57 56" fill="none" xmlns="http://www.w3.org/2000/svg">
<rect x="0.666992" width="56" height="56" rx="10" fill="white"/>
<g clip-path="url(#clip0_2577_6234)">
<g clip-path="url(#clip1_2577_6234)">
<path d="M30.3945 22.8259L34.3475 26.4049L35.7912 24.8099C37.4037 25.2063 39.1892 24.788 40.4701 23.5071C41.3809 22.5963 42.3526 20.9023 42.888 19.2919C43.6108 17.1178 43.4798 15.4557 42.5093 14.4853C41.5389 13.5147 39.8767 13.3837 37.7026 14.1065C36.0922 14.6419 34.3983 15.6136 33.4875 16.5244C32.2322 17.7796 31.7793 19.5557 32.1849 21.2045L30.3945 22.8259Z" fill="#2B50AA"/>
<path d="M23.5171 29.0537L14.2663 37.4315C13.4949 38.1143 13.0341 39.0961 13.0019 40.126C12.9357 42.2405 14.6346 43.9997 16.7577 43.9997C17.801 43.9997 18.8408 43.5551 19.5681 42.7336L27.7341 33.7115L23.5171 29.0537Z" fill="#2B50AA"/>
<path d="M44.9981 40.1262C44.9658 39.0963 44.5052 38.1145 43.7337 37.4317C42.7908 36.578 26.3174 21.6628 25.8763 21.2635C26.3113 19.6885 25.9122 17.9295 24.6767 16.694C24.2578 16.2751 20.6945 12.7118 20.2573 12.2746C19.8912 11.9085 19.2977 11.9085 18.9315 12.2746C18.5654 12.6407 18.5654 13.2343 18.9315 13.6004L21.4506 16.1195L19.948 17.6222L17.4288 15.103C17.0628 14.7368 16.4692 14.7369 16.103 15.103C15.7369 15.469 15.7369 16.0627 16.103 16.4288L18.6221 18.9478L17.1195 20.4505L14.6004 17.9314C14.2343 17.5653 13.6407 17.5653 13.2746 17.9314C12.9085 18.2975 12.9085 18.8911 13.2746 19.2572C17.3913 23.3739 13.4555 19.438 17.694 23.6767C18.8984 24.8811 20.6408 25.3244 22.2634 24.8763C48.5275 53.8843 29.0115 32.3293 38.4317 42.7335C39.1145 43.505 40.0963 43.9658 41.1263 43.998C43.2892 44.0663 45.0658 42.2897 44.9981 40.1262Z" fill="#2B50AA"/>
</g>
</g>
<defs>
<clipPath id="clip0_2577_6234">
<rect width="32" height="32" fill="white" transform="translate(13 12)"/>
</clipPath>
<clipPath id="clip1_2577_6234">
<rect width="32" height="32" fill="white" transform="translate(13 12)"/>
</clipPath>
</defs>
</svg>
