<svg width="57" height="56" viewBox="0 0 57 56" fill="none" xmlns="http://www.w3.org/2000/svg">
<rect x="0.333496" width="56" height="56" rx="10" fill="white"/>
<g clip-path="url(#clip0_2577_6243)">
<g clip-path="url(#clip1_2577_6243)">
<mask id="mask0_2577_6243" style="mask-type:luminance" maskUnits="userSpaceOnUse" x="12" y="12" width="32" height="32">
<path d="M44 12H12V44H44V12Z" fill="white"/>
</mask>
<g mask="url(#mask0_2577_6243)">
<path d="M36.4375 27.3125C36.4375 26.2786 35.5964 25.4375 34.5625 25.4375H32.6875C31.6536 25.4375 30.8125 26.2786 30.8125 27.3125V33.875H36.4375V27.3125Z" fill="#2B50AA"/>
<path d="M15.8125 16.6875C15.8125 15.1369 17.0744 13.875 18.625 13.875H20.5C21.7671 13.875 22.841 14.7178 23.1915 15.872C21.1151 16.3534 19.5625 18.2169 19.5625 20.4375V21.375H28.9375V20.4375C28.9375 18.1458 27.2839 16.2342 25.1075 15.83C24.7033 13.6534 22.7915 12 20.5 12H18.625C16.0406 12 13.9375 14.1025 13.9375 16.6875V25.4375H15.8125V16.6875Z" fill="#2B50AA"/>
<path d="M38.3125 35.75H28.9375V32.9375H13.9375V35.75C13.9375 38.2032 15.2906 40.3458 17.2895 41.4718L16.0871 42.6741L17.4129 44L19.2251 42.1878C19.6376 42.2693 20.0639 42.3125 20.5 42.3125H35.5C35.9361 42.3125 36.3624 42.2693 36.7749 42.1878L38.5871 44L39.9129 42.6742L38.7106 41.4718C40.7094 40.3458 42.0625 38.2032 42.0625 35.75V32.9375H38.3125V35.75Z" fill="#2B50AA"/>
<path d="M42.125 27.3125H38.3125V31.0625H42.125C43.1588 31.0625 44 30.2213 44 29.1875C44 28.1537 43.1588 27.3125 42.125 27.3125Z" fill="#2B50AA"/>
<path d="M28.9375 27.3125H13.875C12.8412 27.3125 12 28.1537 12 29.1875C12 30.2213 12.8412 31.0625 13.875 31.0625H28.9375V27.3125Z" fill="#2B50AA"/>
</g>
</g>
</g>
<defs>
<clipPath id="clip0_2577_6243">
<rect width="32" height="32" fill="white" transform="translate(12.3335 12)"/>
</clipPath>
<clipPath id="clip1_2577_6243">
<rect width="32" height="32" fill="white" transform="translate(12 12)"/>
</clipPath>
</defs>
</svg>
