<svg width="72" height="73" viewBox="0 0 72 73" fill="none" xmlns="http://www.w3.org/2000/svg">
<rect x="0.5" y="1" width="71" height="71" rx="23.5" fill="#2B50AA"/>
<rect x="0.5" y="1" width="71" height="71" rx="23.5" stroke="#E0E0E0"/>
<g clip-path="url(#clip0_2577_6165)">
<mask id="mask0_2577_6165" style="mask-type:luminance" maskUnits="userSpaceOnUse" x="16" y="16" width="40" height="41">
<path d="M56 16.5H16V56.5H56V16.5Z" fill="white"/>
</mask>
<g mask="url(#mask0_2577_6165)">
<path fill-rule="evenodd" clip-rule="evenodd" d="M36 56.5C24.972 56.5 16 47.528 16 36.5C16 25.472 24.972 16.5 36 16.5C47.028 16.5 56 25.472 56 36.5C56 47.528 47.028 56.5 36 56.5ZM46.1506 24.3292L40.0726 30.407V27.7514C40.0726 26.9624 39.433 26.3228 38.644 26.3228C37.8552 26.3228 37.2154 26.9623 37.2154 27.7514V33.8559C37.2154 34.6449 37.855 35.2845 38.644 35.2845H44.7486C45.5374 35.2845 46.1772 34.6449 46.1772 33.8559C46.1772 33.0669 45.5374 32.4273 44.7486 32.4273H42.0928L48.1708 26.3494C48.7288 25.7916 48.7288 24.887 48.1708 24.3291C47.6128 23.7712 46.7084 23.7712 46.1506 24.3292ZM33.356 37.7156H27.2515C26.4626 37.7156 25.8229 38.355 25.8229 39.144C25.8229 39.9332 26.4625 40.5726 27.2515 40.5726H29.9071L23.8291 46.6506C23.2712 47.2086 23.2712 48.113 23.8291 48.671C24.1081 48.9498 24.4736 49.0894 24.8392 49.0894C25.2048 49.0894 25.5704 48.95 25.8494 48.671L31.9273 42.593V45.2486C31.9273 46.0378 32.5669 46.6772 33.3558 46.6772C34.1447 46.6772 34.7844 46.0378 34.7844 45.2486V39.1442C34.7845 38.355 34.1449 37.7156 33.356 37.7156Z" fill="white"/>
</g>
</g>
<defs>
<clipPath id="clip0_2577_6165">
<rect width="40" height="40" fill="white" transform="translate(16 16.5)"/>
</clipPath>
</defs>
</svg>
