<svg width="56" height="56" viewBox="0 0 56 56" fill="none" xmlns="http://www.w3.org/2000/svg">
<rect width="56" height="56" rx="10" fill="white"/>
<g clip-path="url(#clip0_2577_6257)">
<path d="M25.3949 13C30.4368 13 35.4787 13 40.5198 13C40.983 13.2198 41.1559 13.5843 41.1543 14.0958C41.1422 17.2783 41.1487 20.4615 41.1479 23.6439C41.1479 24.0367 41.1535 24.4294 41.1446 24.8222C41.1349 25.2343 40.8868 25.5552 40.5045 25.6845C40.3566 25.7346 40.2062 25.7257 40.0559 25.7257C38.1217 25.7265 36.1876 25.7305 34.2534 25.7216C33.9802 25.72 33.8662 25.8008 33.8832 26.0837C33.9018 26.3948 33.8873 26.7076 33.8873 27.0203C33.8873 27.4939 33.8881 27.4939 34.348 27.4939C36.8665 27.4939 39.385 27.5011 41.9036 27.4874C42.4152 27.485 42.7805 27.6587 42.9996 28.1218C42.9996 29.7348 42.9996 31.3479 42.9996 32.9609C42.9301 32.9682 42.8597 32.9827 42.7902 32.9827C38.7061 32.9835 34.6228 32.9819 30.5386 32.9876C30.2913 32.9876 30.204 32.9084 30.2064 32.6578C30.2169 31.7002 30.2105 30.7426 30.2097 29.7849C30.2097 29.3566 30.2089 29.3566 29.795 29.355C29.6035 29.3542 29.4119 29.3534 29.2204 29.355C28.3224 29.3647 28.4509 29.2402 28.442 30.1163C28.4347 30.8202 28.0872 31.1685 27.3767 31.1693C26.0455 31.1709 24.7143 31.1693 23.3839 31.1701C23.0065 31.1701 22.9984 31.1798 22.9968 31.5669C22.996 31.9095 23.0089 32.253 22.9927 32.5948C22.9798 32.8631 23.0881 32.9455 23.3475 32.9415C24.1437 32.9302 24.9406 32.9334 25.7376 32.9391C27.2256 32.9488 28.4291 34.148 28.4404 35.6318C28.4452 36.2468 28.4461 36.8618 28.4396 37.4767C28.4331 38.0465 28.0573 38.4263 27.4875 38.4263C23.8778 38.4295 20.2681 38.4295 16.6576 38.4271C16.0692 38.4263 15.6966 38.0489 15.6909 37.4606C15.6852 36.8561 15.6861 36.2508 15.6901 35.6455C15.6998 34.1448 16.9033 32.9472 18.4107 32.9391C19.2173 32.935 20.024 32.9334 20.8306 32.9407C21.0497 32.9423 21.1426 32.8623 21.1361 32.6393C21.1264 32.2869 21.1345 31.9338 21.1337 31.5806C21.1329 31.1782 21.1264 31.1709 20.7296 31.1709C19.3685 31.1701 18.0074 31.1733 16.6455 31.1685C16.074 31.166 15.7014 30.7894 15.6893 30.2213C15.6852 30.0403 15.6788 29.8577 15.6901 29.6774C15.7038 29.4463 15.6165 29.3445 15.3765 29.3534C15.0338 29.3655 14.6911 29.3558 14.3484 29.3566C13.8602 29.3566 13.8602 29.3566 13.8602 29.8334C13.8602 34.2192 13.861 38.6049 13.8586 42.9906C13.8586 43.5943 13.4819 43.9943 12.9283 43.9943C12.3746 43.9943 11.9988 43.5943 11.9988 42.9898C11.9972 38.1604 11.9972 33.331 11.9988 28.5024C11.9988 27.8591 12.3665 27.4987 13.0172 27.4963C13.7834 27.4931 14.5504 27.4842 15.3159 27.5011C15.6149 27.5076 15.6966 27.3993 15.6925 27.1132C15.6796 26.0142 15.6812 24.9151 15.6901 23.8169C15.6949 23.2334 15.6618 22.6499 15.7426 22.0664C16.2074 18.7151 19.3661 16.2479 22.7195 16.6229C26.0051 16.9906 28.4954 19.7738 28.4436 23.0095C28.4218 24.3801 28.4469 25.7515 28.4347 27.1229C28.4323 27.4195 28.5333 27.506 28.8211 27.5011C29.7789 27.4866 30.7367 27.4898 31.6944 27.4995C31.9466 27.502 32.0355 27.4082 32.0266 27.1609C32.0129 26.7787 32.0178 26.3948 32.025 26.0118C32.0291 25.8033 31.9402 25.7216 31.7349 25.7257C31.3517 25.733 30.9678 25.7119 30.5855 25.7321C30.3002 25.7467 30.1951 25.6562 30.2024 25.3596C30.2202 24.604 30.2161 23.8476 30.2064 23.0912C30.1838 21.3327 29.7304 19.7051 28.6926 18.2658C27.7606 16.9728 26.5458 16.0345 25.0643 15.4495C24.8428 15.3622 24.7442 15.2482 24.7588 15.005C24.7774 14.7035 24.779 14.3997 24.7596 14.0983C24.7289 13.5843 24.9317 13.2206 25.3949 13Z" fill="#2B50AA"/>
<path d="M43 43.3668C42.9588 43.4363 42.9216 43.5082 42.8763 43.5745C42.6411 43.9204 42.2346 44.0739 41.845 43.9664C41.4401 43.8549 41.1685 43.5114 41.1644 43.0726C41.1572 42.2863 41.1539 41.5008 41.1661 40.7145C41.1701 40.4543 41.0836 40.3605 40.8177 40.3613C38.0163 40.3686 35.214 40.3686 32.4126 40.3613C32.1418 40.3605 32.0651 40.464 32.0691 40.7193C32.0804 41.475 32.0756 42.2306 32.0723 42.987C32.0699 43.5923 31.6981 43.9923 31.1461 43.9939C30.5924 43.9955 30.2133 43.5955 30.2125 42.9942C30.2101 40.3743 30.215 37.7543 30.2061 35.1343C30.2053 34.8539 30.2756 34.748 30.5754 34.748C34.6272 34.7569 38.6782 34.7537 42.7301 34.7545C42.8198 34.7545 42.9103 34.7691 43 34.7763C43 37.6395 43 40.5036 43 43.3668Z" fill="#2B50AA"/>
<path d="M22.066 43.9955C21.4719 43.9955 20.8787 43.9995 20.2846 43.9939C19.7132 43.9882 19.3187 43.5987 19.3228 43.0564C19.326 42.5287 19.7188 42.1473 20.2717 42.136C20.443 42.1327 20.6144 42.1238 20.7849 42.1376C21.0436 42.1586 21.1511 42.0624 21.1398 41.7933C21.1236 41.4014 21.1446 41.0086 21.1333 40.6159C21.1268 40.3936 21.2125 40.312 21.4332 40.3177C21.8656 40.329 22.2988 40.3265 22.7312 40.3193C22.9244 40.316 23.0012 40.3936 22.9979 40.5868C22.9907 40.9892 23.0093 41.3925 22.9931 41.7941C22.9826 42.064 23.0917 42.1594 23.3487 42.1368C23.4886 42.1246 23.63 42.1343 23.7714 42.1351C24.4051 42.1392 24.8068 42.4964 24.8101 43.058C24.8133 43.6326 24.4084 43.9947 23.7561 43.9963C23.1935 43.9971 22.6294 43.9955 22.066 43.9955Z" fill="#2B50AA"/>
</g>
<defs>
<clipPath id="clip0_2577_6257">
<rect width="31" height="31" fill="white" transform="translate(12 13)"/>
</clipPath>
</defs>
</svg>
