<svg width="57" height="56" viewBox="0 0 57 56" fill="none" xmlns="http://www.w3.org/2000/svg">
<rect x="0.666992" width="56" height="56" rx="10" fill="white"/>
<path d="M19.8892 20.6954C19.9096 15.9716 23.7553 12.1935 28.5156 12.2209C33.1506 12.2482 36.9821 16.0861 36.9627 20.6833C36.9424 25.4902 33.1303 29.2359 28.2803 29.2146C23.68 29.1943 19.8699 25.326 19.8892 20.6954ZM28.3873 21.327C28.0074 21.3097 27.5644 21.3432 27.1274 21.4243C26.8922 21.4679 26.66 21.5408 26.438 21.6311C25.6741 21.9402 25.2871 22.5738 25.3961 23.328C25.4765 23.8866 25.67 24.4056 26.0194 24.8536C26.66 25.6757 27.4941 26.209 28.5533 26.1562C29.9099 26.0883 31.1066 24.9732 31.3999 23.6382C31.6311 22.5839 31.2207 21.8723 30.1828 21.5388C29.6196 21.3594 29.0391 21.3219 28.3873 21.327ZM24.1576 20.1095C24.4856 20.1095 24.7595 19.8409 24.7656 19.5145C24.7717 19.188 24.5049 18.9103 24.178 18.9001C23.8348 18.89 23.5465 19.1718 23.5516 19.5134C23.5557 19.8409 23.8297 20.1095 24.1576 20.1095ZM32.0894 19.4759C32.0721 19.8003 32.3298 20.0872 32.6577 20.1085C32.9826 20.1298 33.2749 19.8784 33.3024 19.553C33.3309 19.2144 33.059 18.9113 32.7168 18.9001C32.3888 18.89 32.1067 19.1495 32.0894 19.4759Z" fill="#2B50AA"/>
<path d="M28.5938 44.3949C27.2912 44.3929 26.18 44.2216 25.0842 43.9256C24.8112 43.8516 24.7175 43.7897 24.8682 43.4785C26.4845 40.1414 24.0026 36.3725 20.2872 36.5103C20.0601 36.5184 19.8228 36.5276 19.6089 36.5945C19.2647 36.7029 19.2901 36.488 19.2861 36.2822C19.2524 34.6492 19.5172 33.0627 20.0285 31.5138C20.4227 30.3196 20.9747 29.2025 21.6479 28.1392C21.7935 27.908 21.8801 27.8979 22.0929 28.0773C25.8266 31.2218 31.0137 31.2218 34.7636 28.0814C34.9307 27.9415 35.0233 27.8553 35.1843 28.1057C36.769 30.5771 37.5787 33.2695 37.5746 36.2052C37.5746 36.5397 37.5176 36.6431 37.1326 36.5843C34.0232 36.1048 31.3589 38.4739 31.4832 41.587C31.5096 42.2641 31.6726 42.9149 31.9995 43.511C32.1441 43.7755 32.0596 43.8597 31.8101 43.9144C31.3396 44.0168 30.8741 44.1496 30.4005 44.2297C29.7487 44.3382 29.0918 44.4061 28.5938 44.3949Z" fill="#2B50AA"/>
<path d="M20.4864 45.0002C18.475 44.9951 16.8353 43.3519 16.8403 41.3468C16.8454 39.3447 18.4964 37.7127 20.5109 37.7188C22.5244 37.7238 24.1611 39.365 24.156 41.3722C24.1509 43.3752 22.502 45.0053 20.4864 45.0002Z" fill="#2B50AA"/>
<path d="M40.0139 41.3519C40.0169 43.3581 38.3762 44.9962 36.3627 44.9992C34.3502 45.0023 32.7003 43.3662 32.6982 41.3641C32.6962 39.359 34.337 37.7198 36.3505 37.7168C38.365 37.7148 40.0108 39.3478 40.0139 41.3519Z" fill="#2B50AA"/>
<path d="M39.7276 34.2339C38.7427 34.2278 38.7233 34.2156 38.539 33.2769C38.1113 31.1076 37.2924 29.0984 36.0458 27.2677C35.9124 27.072 35.8829 26.9403 36.054 26.7477C36.2627 26.5125 36.4379 26.2449 36.608 25.9793C36.7078 25.8232 36.7944 25.7816 36.9736 25.8698C39.2957 27.0183 40.964 28.7365 41.7197 31.2505C41.8032 31.5283 41.8398 31.8182 41.8429 32.1102C41.8572 33.4503 41.0678 34.243 39.7276 34.2339Z" fill="#2B50AA"/>
<path d="M17.1247 34.2502C15.6551 34.2431 14.8088 33.2264 15.0369 31.7292C15.2508 30.3303 15.9576 29.1787 16.8691 28.1325C17.6859 27.1959 18.6534 26.4528 19.7799 25.9135C20.009 25.8041 20.1628 25.7737 20.2901 26.0463C20.3747 26.2268 20.4948 26.4042 20.6405 26.539C20.9908 26.8624 20.9155 27.1229 20.6659 27.4949C19.4041 29.3794 18.6097 31.4565 18.2522 33.6917C18.1992 34.0191 18.0801 34.157 17.7653 34.1762C17.5515 34.1894 17.3386 34.2249 17.1247 34.2502Z" fill="#2B50AA"/>
<path d="M23.7536 12.1918C21.8602 13.2613 20.4497 14.7535 19.5483 16.7129C19.4434 16.942 19.3396 17.1742 19.2662 17.4144C19.1919 17.6577 19.1094 17.7206 18.8884 17.5391C17.7915 16.64 17.2812 15.4955 17.5063 14.0915C17.7436 12.6105 18.6226 11.612 20.0576 11.1751C21.4345 10.7554 22.6608 11.1011 23.6986 12.0955C23.7169 12.1128 23.724 12.1391 23.7536 12.1918Z" fill="#2B50AA"/>
<path d="M33.0688 12.1713C34.07 11.1931 35.2188 10.8038 36.5438 11.1039C37.9137 11.4141 38.8272 12.2757 39.2468 13.6138C39.696 15.0482 39.1481 16.6793 37.9615 17.5409C37.8291 17.6372 37.7191 17.7761 37.6142 17.4862C36.7771 15.1678 35.2585 13.4172 33.0688 12.1713Z" fill="#2B50AA"/>
<path d="M28.439 22.5432C28.9085 22.5411 29.378 22.5523 29.8302 22.6972C30.2192 22.8219 30.3068 22.9922 30.2121 23.3815C30.1999 23.4302 30.1897 23.4798 30.1755 23.5285C29.93 24.3263 29.046 25.0237 28.3585 24.9619C27.5539 24.8899 26.7626 24.1225 26.6129 23.2862C26.5528 22.9497 26.728 22.7895 27.0101 22.7003C27.4755 22.5523 27.9572 22.5411 28.439 22.5432Z" fill="#2B50AA"/>
</svg>
