<svg width="19" height="18" viewBox="0 0 19 18" fill="none" xmlns="http://www.w3.org/2000/svg">
<g filter="url(#filter0_d_600_2004)">
<path fill-rule="evenodd" clip-rule="evenodd" d="M1.38289 0.390789C1.62812 0.140566 1.96069 -7.011e-07 2.30746 -6.85943e-07C2.65422 -6.70785e-07 2.98679 0.140566 3.23202 0.390789L9.7707 7.06441C10.0159 7.31471 10.1536 7.65414 10.1536 8.00806C10.1536 8.36198 10.0159 8.70141 9.7707 8.95171L3.23202 15.6253C2.98538 15.8685 2.65505 16.003 2.31216 15.9999C1.96928 15.9969 1.64128 15.8565 1.39882 15.6091C1.15635 15.3616 1.01882 15.0268 1.01584 14.6769C1.01286 14.3269 1.14467 13.9898 1.38289 13.738L6.99699 8.00806L1.38289 2.27809C1.13772 2.02779 1 1.68836 1 1.33444C1 0.980517 1.13772 0.641086 1.38289 0.390789ZM9.2293 0.390789C9.47453 0.140567 9.8071 -3.58123e-07 10.1539 -3.42965e-07C10.5006 -3.27808e-07 10.8332 0.140567 11.0784 0.390789L17.6171 7.06441C17.8623 7.31471 18 7.65414 18 8.00806C18 8.36198 17.8623 8.70141 17.6171 8.95171L11.0784 15.6253C10.8318 15.8685 10.5015 16.003 10.1586 15.9999C9.81569 15.9969 9.48769 15.8565 9.24523 15.6091C9.00276 15.3616 8.86523 15.0268 8.86225 14.6769C8.85927 14.3269 8.99108 13.9898 9.2293 13.738L14.8434 8.00806L9.2293 2.27809C8.98414 2.02779 8.84641 1.68836 8.84641 1.33444C8.84641 0.980517 8.98414 0.641087 9.2293 0.390789Z" fill="white"/>
</g>
<defs>
<filter id="filter0_d_600_2004" x="0" y="0" width="19" height="18" filterUnits="userSpaceOnUse" color-interpolation-filters="sRGB">
<feFlood flood-opacity="0" result="BackgroundImageFix"/>
<feColorMatrix in="SourceAlpha" type="matrix" values="0 0 0 0 0 0 0 0 0 0 0 0 0 0 0 0 0 0 127 0" result="hardAlpha"/>
<feOffset dy="1"/>
<feGaussianBlur stdDeviation="0.5"/>
<feComposite in2="hardAlpha" operator="out"/>
<feColorMatrix type="matrix" values="0 0 0 0 0 0 0 0 0 0 0 0 0 0 0 0 0 0 0.25 0"/>
<feBlend mode="normal" in2="BackgroundImageFix" result="effect1_dropShadow_600_2004"/>
<feBlend mode="normal" in="SourceGraphic" in2="effect1_dropShadow_600_2004" result="shape"/>
</filter>
</defs>
</svg>
