<svg width="31" height="31" viewBox="0 0 31 31" fill="none" xmlns="http://www.w3.org/2000/svg">
<g clip-path="url(#clip0_2982_6780)">
<path d="M14.2817 0.625977C15.0939 0.625977 15.9061 0.625977 16.7183 0.625977C16.7741 0.638377 16.8299 0.653877 16.8888 0.660077C19.1611 0.864677 21.3001 1.51878 23.2128 2.75568C28.2968 6.04478 30.6931 10.7289 30.3118 16.7894C30.1785 18.9036 29.543 20.8876 28.4983 22.729C25.2991 28.3834 19.0588 31.3718 12.6883 30.0729C6.77658 28.867 2.95118 25.2183 1.15318 19.4554C0.874175 18.5595 0.759475 17.6264 0.644775 16.6964C0.644775 15.8842 0.644775 15.072 0.644775 14.2598C0.722275 13.7266 0.762575 13.181 0.880375 12.6571C2.20098 6.81978 5.71328 2.98508 11.4111 1.16538C12.3442 0.867777 13.3114 0.743777 14.2817 0.629077V0.625977ZM15.5961 24.6882C15.9526 24.7037 16.4145 24.6634 16.8733 24.5921C18.7705 24.2976 20.4228 23.4916 21.824 22.1803C22.8997 21.1728 23.6871 19.9669 24.18 18.5781C24.3381 18.1317 24.1428 17.6822 23.7367 17.5148C23.2965 17.3319 22.8408 17.521 22.6331 17.9798C22.5742 18.11 22.5246 18.2495 22.4688 18.3828C20.6801 22.7135 15.314 24.3782 11.4018 21.8145C9.98817 20.8907 8.99618 19.629 8.39478 18.0542C8.19948 17.5396 7.74688 17.3319 7.28188 17.5086C6.83548 17.6791 6.65568 18.1534 6.84788 18.668C8.20258 22.3012 11.6219 24.6851 15.5961 24.6882ZM9.86108 9.05488C9.67818 9.03938 9.45808 9.07968 9.24108 9.11378C7.56398 9.38348 6.22478 11.011 6.28988 12.6943C6.30848 13.1407 6.62158 13.4724 7.04628 13.4941C7.51748 13.5189 7.87088 13.2275 7.93288 12.7656C7.94838 12.6509 7.95458 12.5331 7.97318 12.4215C8.14368 11.414 8.98378 10.6886 9.93858 10.7227C10.9926 10.7599 11.7893 11.5535 11.8606 12.6323C11.8978 13.1872 12.2295 13.5127 12.7441 13.4941C13.2339 13.4786 13.5253 13.1283 13.5191 12.5703C13.4912 10.6235 11.873 9.05178 9.86108 9.05488ZM21.0986 9.05488C20.4972 9.05488 19.9237 9.18198 19.4029 9.47648C18.166 10.174 17.4995 11.2249 17.4809 12.6571C17.4747 13.2337 17.9211 13.5871 18.4822 13.4817C18.8635 13.4104 19.1053 13.0849 19.1363 12.6044C19.2138 11.4171 20.1903 10.608 21.3714 10.7537C22.3045 10.8715 22.9555 11.6124 23.0578 12.6757C23.1074 13.2151 23.4391 13.5189 23.9506 13.4941C24.4094 13.4724 24.707 13.1252 24.7101 12.6106C24.7194 10.6731 23.0764 9.05798 21.0986 9.05488Z" fill="url(#paint0_linear_2982_6780)"/>
</g>
<defs>
<linearGradient id="paint0_linear_2982_6780" x1="6.79632" y1="2.37613" x2="47.8072" y2="48.8233" gradientUnits="userSpaceOnUse">
<stop offset="0.214273" stop-color="#842DD5"/>
<stop offset="0.728725" stop-color="#24164A"/>
</linearGradient>
<clipPath id="clip0_2982_6780">
<rect width="31" height="31" fill="white"/>
</clipPath>
</defs>
</svg>
