<svg width="48" height="48" viewBox="0 0 48 48" fill="none" xmlns="http://www.w3.org/2000/svg">
<path fill-rule="evenodd" clip-rule="evenodd" d="M34.2188 6.33839C38.3804 7.49425 39.9723 10.4069 41.9681 14.4158H34.2188V6.33839ZM9.89795 14.7525C10.7128 14.7525 11.3042 15.2232 11.3042 16.3234C11.3042 17.2514 10.6769 18.004 9.90198 18.0066H1.40625C0.629517 18.0066 0 18.7605 0 19.6898C0 20.6195 0.629517 21.3729 1.40625 21.3729H14.0625C14.8466 21.3729 15.4742 22.126 15.4742 23.0561C15.4742 23.9858 14.8447 24.7393 14.068 24.7393H1.40625C0.629517 24.7393 0 25.4928 0 26.4224C0 27.3521 0.629517 28.1056 1.40625 28.1056H4.5V33.1551C4.5 34.0848 5.12952 34.8383 5.90625 34.8383H8.73303C9.23694 37.8093 11.4302 40 14.0156 40C16.6011 40 18.7943 37.8093 19.2982 34.8383H33.5768C34.0807 37.8093 36.2739 40 38.8594 40C41.4448 40 43.6381 37.8093 44.142 34.8383H46.5938C47.3705 34.8383 48 34.0848 48 33.1551V23.0561C48 18.1175 43.6479 17.7896 43.6439 17.7822H32.8125C32.0358 17.7822 31.4062 17.0287 31.4062 16.099V6H5.90625C5.12952 6 4.5 6.75348 4.5 7.68317V11.3861H2.8125C2.03577 11.3861 1.40625 12.1396 1.40625 13.0693C1.40625 13.999 2.03577 14.7525 2.8125 14.7525H9.89795ZM40.6824 31.3659C41.6891 32.5708 41.6891 34.5253 40.6824 35.7303C39.063 37.6685 36.2812 36.2896 36.2812 33.5479C36.2812 30.8066 39.063 29.4276 40.6824 31.3659ZM15.8386 31.3659C16.8453 32.5708 16.8453 34.5253 15.8386 35.7303C14.2192 37.6685 11.4375 36.2896 11.4375 33.5479C11.4375 30.8066 14.2192 29.4276 15.8386 31.3659Z" fill="#BDBDBD"/>
</svg>
