<svg width="24" height="25" viewBox="0 0 24 25" fill="none" xmlns="http://www.w3.org/2000/svg">
<g clip-path="url(#clip0_1192_47071)">
<path d="M12 24.2471C18.6274 24.2471 24 18.8745 24 12.2471C24 5.61965 18.6274 0.24707 12 0.24707C5.37258 0.24707 0 5.61965 0 12.2471C0 18.8745 5.37258 24.2471 12 24.2471Z" fill="#F0F0F0"/>
<path d="M11.4795 12.2476H24.0012C24.0012 11.1645 23.8568 10.1153 23.5878 9.11719H11.4795V12.2476Z" fill="#D80027"/>
<path d="M11.4795 5.9869H22.2399C21.5054 4.78821 20.5661 3.7287 19.471 2.85645H11.4795V5.9869Z" fill="#D80027"/>
<path d="M12.0001 24.2474C14.8243 24.2474 17.4201 23.2712 19.4699 21.6387H4.53027C6.58012 23.2712 9.17591 24.2474 12.0001 24.2474Z" fill="#D80027"/>
<path d="M1.76098 18.5084H22.2384C22.8281 17.5461 23.2855 16.4942 23.5863 15.3779H0.413086C0.713883 16.4942 1.17124 17.5461 1.76098 18.5084V18.5084Z" fill="#D80027"/>
<path d="M5.55862 2.12104H6.65217L5.63498 2.86002L6.02353 4.05576L5.00639 3.31677L3.98925 4.05576L4.32487 3.02277C3.42928 3.76879 2.64431 4.64282 1.99744 5.6167H2.34783L1.70034 6.08709C1.59947 6.25537 1.50272 6.42632 1.41 6.5998L1.71919 7.55141L1.14234 7.1323C0.998953 7.4361 0.867797 7.74674 0.749906 8.06385L1.09055 9.11235H2.34783L1.33064 9.85134L1.71919 11.0471L0.702047 10.3081L0.0927656 10.7508C0.0317812 11.241 0 11.7403 0 12.2471H12C12 5.6197 12 4.83838 12 0.24707C9.62944 0.24707 7.41961 0.934727 5.55862 2.12104V2.12104ZM6.02353 11.0471L5.00639 10.3081L3.98925 11.0471L4.3778 9.85134L3.36061 9.11235H4.61789L5.00639 7.91662L5.39489 9.11235H6.65217L5.63498 9.85134L6.02353 11.0471ZM5.63498 6.35568L6.02353 7.55141L5.00639 6.81243L3.98925 7.55141L4.3778 6.35568L3.36061 5.6167H4.61789L5.00639 4.42096L5.39489 5.6167H6.65217L5.63498 6.35568ZM10.3279 11.0471L9.31073 10.3081L8.29359 11.0471L8.68214 9.85134L7.66495 9.11235H8.92223L9.31073 7.91662L9.69923 9.11235H10.9565L9.93933 9.85134L10.3279 11.0471ZM9.93933 6.35568L10.3279 7.55141L9.31073 6.81243L8.29359 7.55141L8.68214 6.35568L7.66495 5.6167H8.92223L9.31073 4.42096L9.69923 5.6167H10.9565L9.93933 6.35568ZM9.93933 2.86002L10.3279 4.05576L9.31073 3.31677L8.29359 4.05576L8.68214 2.86002L7.66495 2.12104H8.92223L9.31073 0.925305L9.69923 2.12104H10.9565L9.93933 2.86002Z" fill="#0052B4"/>
</g>
<defs>
<clipPath id="clip0_1192_47071">
<rect width="24" height="24" fill="white" transform="translate(0 0.24707)"/>
</clipPath>
</defs>
</svg>
