<svg width="127" height="171" viewBox="0 0 127 171" fill="none" xmlns="http://www.w3.org/2000/svg">
<path d="M116.6 171L67.1002 159.1L17.2002 171V40.1001H116.6V171Z" fill="#91B9E6"/>
<g filter="url(#filter0_d_4521_12914)">
<path d="M123.5 118.5L11 143.6V2H123.5V118.5Z" fill="url(#paint0_linear_4521_12914)"/>
</g>
<path d="M33.8494 35.6465V28.0101H36.4297C37.0288 28.0101 37.5185 28.1183 37.8988 28.3345C38.2816 28.5483 38.565 28.8379 38.7489 29.2033C38.9329 29.5687 39.0249 29.9764 39.0249 30.4263C39.0249 30.8762 38.9329 31.2852 38.7489 31.6531C38.5675 32.021 38.2866 32.3143 37.9063 32.533C37.5259 32.7493 37.0387 32.8574 36.4446 32.8574H34.5952V32.0371H36.4148C36.8249 32.0371 37.1543 31.9663 37.4029 31.8246C37.6515 31.6829 37.8317 31.4915 37.9435 31.2504C38.0579 31.0067 38.1151 30.7321 38.1151 30.4263C38.1151 30.1206 38.0579 29.8471 37.9435 29.606C37.8317 29.3649 37.6502 29.176 37.3991 29.0392C37.1481 28.9 36.815 28.8304 36.3999 28.8304H34.7741V35.6465H33.8494ZM48.2177 31.8283C48.2177 32.6337 48.0722 33.3297 47.7814 33.9164C47.4906 34.503 47.0916 34.9554 46.5845 35.2736C46.0774 35.5918 45.4982 35.7509 44.8469 35.7509C44.1956 35.7509 43.6164 35.5918 43.1093 35.2736C42.6022 34.9554 42.2033 34.503 41.9124 33.9164C41.6216 33.3297 41.4762 32.6337 41.4762 31.8283C41.4762 31.0229 41.6216 30.3269 41.9124 29.7402C42.2033 29.1536 42.6022 28.7012 43.1093 28.383C43.6164 28.0648 44.1956 27.9057 44.8469 27.9057C45.4982 27.9057 46.0774 28.0648 46.5845 28.383C47.0916 28.7012 47.4906 29.1536 47.7814 29.7402C48.0722 30.3269 48.2177 31.0229 48.2177 31.8283ZM47.3228 31.8283C47.3228 31.1671 47.2122 30.609 46.9909 30.1541C46.7722 29.6992 46.4751 29.3549 46.0998 29.1213C45.7269 28.8876 45.3093 28.7708 44.8469 28.7708C44.3846 28.7708 43.9657 28.8876 43.5903 29.1213C43.2175 29.3549 42.9204 29.6992 42.6992 30.1541C42.4804 30.609 42.3711 31.1671 42.3711 31.8283C42.3711 32.4895 42.4804 33.0476 42.6992 33.5025C42.9204 33.9574 43.2175 34.3017 43.5903 34.5353C43.9657 34.769 44.3846 34.8858 44.8469 34.8858C45.3093 34.8858 45.7269 34.769 46.0998 34.5353C46.4751 34.3017 46.7722 33.9574 46.9909 33.5025C47.2122 33.0476 47.3228 32.4895 47.3228 31.8283ZM51.0325 35.6465V28.0101H53.6128C54.2094 28.0101 54.6991 28.112 55.0819 28.3159C55.4647 28.5172 55.7481 28.7944 55.932 29.1474C56.116 29.5004 56.2079 29.9018 56.2079 30.3517C56.2079 30.8017 56.116 31.2006 55.932 31.5487C55.7481 31.8967 55.4659 32.1701 55.0856 32.369C54.7053 32.5653 54.2193 32.6635 53.6277 32.6635H51.5396V31.8283H53.5979C54.0055 31.8283 54.3337 31.7686 54.5822 31.6493C54.8333 31.53 55.0148 31.361 55.1266 31.1422C55.241 30.921 55.2981 30.6575 55.2981 30.3517C55.2981 30.046 55.241 29.7788 55.1266 29.5501C55.0123 29.3214 54.8296 29.1449 54.5785 29.0206C54.3274 28.8938 53.9956 28.8304 53.5829 28.8304H51.9572V35.6465H51.0325ZM54.627 32.2161L56.5062 35.6465H55.4324L53.5829 32.2161H54.627ZM58.5912 28.8304V28.0101H64.3185V28.8304H61.9172V35.6465H60.9925V28.8304H58.5912ZM66.4268 35.6465H65.4573L68.2613 28.0101H69.2158L72.0198 35.6465H71.0503L68.7684 29.2182H68.7087L66.4268 35.6465ZM66.7847 32.6635H70.6924V33.4838H66.7847V32.6635ZM74.4693 35.6465V28.0101H77.139C77.671 28.0101 78.1097 28.1021 78.4552 28.286C78.8008 28.4675 79.058 28.7124 79.2271 29.0206C79.3961 29.3263 79.4806 29.6657 79.4806 30.0385C79.4806 30.3667 79.4222 30.6376 79.3054 30.8514C79.191 31.0652 79.0394 31.2342 78.8505 31.3585C78.664 31.4828 78.4614 31.5748 78.2427 31.6344V31.709C78.4764 31.7239 78.7113 31.8059 78.9474 31.9551C79.1836 32.1042 79.3812 32.318 79.5403 32.5964C79.6994 32.8748 79.7789 33.2154 79.7789 33.6181C79.7789 34.0009 79.6919 34.3452 79.5179 34.6509C79.3439 34.9567 79.0692 35.199 78.6939 35.378C78.3185 35.557 77.8301 35.6465 77.2285 35.6465H74.4693ZM75.394 34.8262H77.2285C77.8325 34.8262 78.2613 34.7093 78.5149 34.4757C78.7709 34.2395 78.8989 33.9537 78.8989 33.6181C78.8989 33.3596 78.8331 33.1209 78.7013 32.9022C78.5696 32.6809 78.3819 32.5044 78.1383 32.3727C77.8947 32.2385 77.6063 32.1713 77.2732 32.1713H75.394V34.8262ZM75.394 31.3659H77.1092C77.3876 31.3659 77.6386 31.3113 77.8624 31.2019C78.0886 31.0925 78.2676 30.9384 78.3993 30.7395C78.5335 30.5407 78.6006 30.307 78.6006 30.0385C78.6006 29.7029 78.4838 29.4183 78.2502 29.1847C78.0165 28.9485 77.6461 28.8304 77.139 28.8304H75.394V31.3659ZM82.5584 35.6465V28.0101H83.4831V34.8262H87.0328V35.6465H82.5584ZM89.7246 35.6465V28.0101H94.3333V28.8304H90.6493V31.4107H94.0946V32.231H90.6493V34.8262H94.3929V35.6465H89.7246ZM46.653 42.3965H45.7283C45.6736 42.1305 45.5779 41.8968 45.4412 41.6955C45.3069 41.4941 45.1429 41.3251 44.949 41.1884C44.7576 41.0492 44.545 40.9448 44.3114 40.8752C44.0777 40.8056 43.8341 40.7708 43.5806 40.7708C43.1182 40.7708 42.6993 40.8876 42.324 41.1213C41.9511 41.3549 41.6541 41.6992 41.4328 42.1541C41.2141 42.609 41.1047 43.1671 41.1047 43.8283C41.1047 44.4895 41.2141 45.0476 41.4328 45.5025C41.6541 45.9574 41.9511 46.3017 42.324 46.5353C42.6993 46.769 43.1182 46.8858 43.5806 46.8858C43.8341 46.8858 44.0777 46.851 44.3114 46.7814C44.545 46.7118 44.7576 46.6087 44.949 46.4719C45.1429 46.3327 45.3069 46.1625 45.4412 45.9611C45.5779 45.7573 45.6736 45.5236 45.7283 45.2601H46.653C46.5834 45.6504 46.4566 45.9996 46.2727 46.3079C46.0887 46.6161 45.86 46.8784 45.5866 47.0946C45.3132 47.3084 45.0062 47.4712 44.6656 47.5831C44.3275 47.695 43.9659 47.7509 43.5806 47.7509C42.9293 47.7509 42.3501 47.5918 41.843 47.2736C41.3359 46.9554 40.9369 46.503 40.6461 45.9164C40.3552 45.3297 40.2098 44.6337 40.2098 43.8283C40.2098 43.0229 40.3552 42.3269 40.6461 41.7402C40.9369 41.1536 41.3359 40.7012 41.843 40.383C42.3501 40.0648 42.9293 39.9057 43.5806 39.9057C43.9659 39.9057 44.3275 39.9616 44.6656 40.0735C45.0062 40.1854 45.3132 40.3494 45.5866 40.5657C45.86 40.7795 46.0887 41.0405 46.2727 41.3487C46.4566 41.6545 46.5834 42.0037 46.653 42.3965ZM55.8505 43.8283C55.8505 44.6337 55.705 45.3297 55.4142 45.9164C55.1234 46.503 54.7244 46.9554 54.2173 47.2736C53.7102 47.5918 53.131 47.7509 52.4797 47.7509C51.8284 47.7509 51.2492 47.5918 50.7421 47.2736C50.235 46.9554 49.8361 46.503 49.5452 45.9164C49.2544 45.3297 49.109 44.6337 49.109 43.8283C49.109 43.0229 49.2544 42.3269 49.5452 41.7402C49.8361 41.1536 50.235 40.7012 50.7421 40.383C51.2492 40.0648 51.8284 39.9057 52.4797 39.9057C53.131 39.9057 53.7102 40.0648 54.2173 40.383C54.7244 40.7012 55.1234 41.1536 55.4142 41.7402C55.705 42.3269 55.8505 43.0229 55.8505 43.8283ZM54.9556 43.8283C54.9556 43.1671 54.845 42.609 54.6237 42.1541C54.405 41.6992 54.1079 41.3549 53.7326 41.1213C53.3597 40.8876 52.9421 40.7708 52.4797 40.7708C52.0174 40.7708 51.5985 40.8876 51.2231 41.1213C50.8503 41.3549 50.5532 41.6992 50.332 42.1541C50.1132 42.609 50.0039 43.1671 50.0039 43.8283C50.0039 44.4895 50.1132 45.0476 50.332 45.5025C50.5532 45.9574 50.8503 46.3017 51.2231 46.5353C51.5985 46.769 52.0174 46.8858 52.4797 46.8858C52.9421 46.8858 53.3597 46.769 53.7326 46.5353C54.1079 46.3017 54.405 45.9574 54.6237 45.5025C54.845 45.0476 54.9556 44.4895 54.9556 43.8283ZM65.1085 43.8283C65.1085 44.6337 64.9631 45.3297 64.6722 45.9164C64.3814 46.503 63.9824 46.9554 63.4753 47.2736C62.9682 47.5918 62.389 47.7509 61.7378 47.7509C61.0865 47.7509 60.5073 47.5918 60.0002 47.2736C59.4931 46.9554 59.0941 46.503 58.8033 45.9164C58.5124 45.3297 58.367 44.6337 58.367 43.8283C58.367 43.0229 58.5124 42.3269 58.8033 41.7402C59.0941 41.1536 59.4931 40.7012 60.0002 40.383C60.5073 40.0648 61.0865 39.9057 61.7378 39.9057C62.389 39.9057 62.9682 40.0648 63.4753 40.383C63.9824 40.7012 64.3814 41.1536 64.6722 41.7402C64.9631 42.3269 65.1085 43.0229 65.1085 43.8283ZM64.2136 43.8283C64.2136 43.1671 64.103 42.609 63.8818 42.1541C63.663 41.6992 63.366 41.3549 62.9906 41.1213C62.6177 40.8876 62.2001 40.7708 61.7378 40.7708C61.2754 40.7708 60.8566 40.8876 60.4812 41.1213C60.1083 41.3549 59.8113 41.6992 59.59 42.1541C59.3713 42.609 59.2619 43.1671 59.2619 43.8283C59.2619 44.4895 59.3713 45.0476 59.59 45.5025C59.8113 45.9574 60.1083 46.3017 60.4812 46.5353C60.8566 46.769 61.2754 46.8858 61.7378 46.8858C62.2001 46.8858 62.6177 46.769 62.9906 46.5353C63.366 46.3017 63.663 45.9574 63.8818 45.5025C64.103 45.0476 64.2136 44.4895 64.2136 43.8283ZM67.9234 47.6465V40.0101H68.8481V46.8262H72.3978V47.6465H67.9234ZM75.0896 47.6465V40.0101H79.6983V40.8304H76.0143V43.4107H79.4596V44.231H76.0143V46.8262H79.7579V47.6465H75.0896ZM82.625 47.6465V40.0101H85.2053C85.8019 40.0101 86.2916 40.112 86.6744 40.3159C87.0572 40.5172 87.3406 40.7944 87.5245 41.1474C87.7085 41.5004 87.8004 41.9018 87.8004 42.3517C87.8004 42.8017 87.7085 43.2006 87.5245 43.5487C87.3406 43.8967 87.0584 44.1701 86.6781 44.369C86.2978 44.5653 85.8118 44.6635 85.2202 44.6635H83.1321V43.8283H85.1904C85.598 43.8283 85.9261 43.7686 86.1747 43.6493C86.4258 43.53 86.6073 43.361 86.7191 43.1422C86.8335 42.921 86.8906 42.6575 86.8906 42.3517C86.8906 42.046 86.8335 41.7788 86.7191 41.5501C86.6048 41.3214 86.4221 41.1449 86.171 41.0206C85.9199 40.8938 85.5881 40.8304 85.1754 40.8304H83.5497V47.6465H82.625ZM86.2195 44.2161L88.0987 47.6465H87.0249L85.1754 44.2161H86.2195Z" fill="white"/>
<path d="M30.7584 19.4383L31.5294 16.9355H33.5532V22.711H32.204V20.9784C32.204 19.9196 32.204 18.957 32.204 18.1869C32.1076 18.5719 32.0113 19.0532 31.8185 19.5345L30.8548 22.711H29.6984L28.7347 19.5345C28.6383 19.1495 28.4456 18.6682 28.3492 18.1869C28.3492 19.0532 28.3492 20.0158 28.3492 20.9784V22.711H27V16.9355H29.0238L29.7947 19.4383C29.8911 19.8233 29.9875 20.3046 30.1802 20.8821C30.2766 20.4008 30.4693 19.9196 30.5657 19.4383H30.7584Z" fill="white"/>
<path d="M37.7941 22.903C36.9268 22.903 36.1558 22.6142 35.674 22.0366C35.0958 21.4591 34.8066 20.7853 34.8066 19.8227C34.8066 18.8601 35.0958 18.1863 35.674 17.6088C36.2522 17.0312 36.9268 16.7424 37.7941 16.7424C38.6615 16.7424 39.4324 17.0312 39.9143 17.6088C40.4925 18.1863 40.7816 18.8601 40.7816 19.8227C40.7816 20.7853 40.4925 21.4591 39.9143 22.0366C39.336 22.6142 38.6615 22.903 37.7941 22.903ZM36.734 21.2666C37.0232 21.5553 37.4086 21.7479 37.8905 21.7479C38.3723 21.7479 38.7578 21.5553 39.0469 21.2666C39.336 20.9778 39.4324 20.4965 39.4324 19.919C39.4324 19.3414 39.336 18.8601 39.0469 18.5713C38.7578 18.2826 38.3723 18.09 37.8905 18.09C37.4086 18.09 37.0232 18.2826 36.734 18.5713C36.4449 18.8601 36.3486 19.3414 36.3486 19.919C36.3486 20.4965 36.4449 20.9778 36.734 21.2666Z" fill="white"/>
<path d="M44.2498 22.9033C43.4788 22.9033 42.8042 22.7108 42.4187 22.3257C41.9369 21.9407 41.7441 21.4594 41.7441 20.7856H43.0933C43.0933 21.1706 43.1897 21.3631 43.3824 21.5556C43.5752 21.7482 43.8643 21.7482 44.3461 21.7482C45.0207 21.7482 45.3098 21.5556 45.3098 21.0744C45.3098 20.5931 45.3098 20.6893 45.1171 20.5931C45.0207 20.5931 44.7316 20.4006 44.2498 20.3043H43.7679C42.5151 20.0155 41.8405 19.438 41.8405 18.3791C41.8405 17.3203 42.0333 17.4165 42.4187 17.1278C42.8042 16.839 43.3824 16.6465 44.057 16.6465C44.7316 16.6465 45.4062 16.839 45.7917 17.1278C46.1772 17.4165 46.3699 17.8978 46.4663 18.5716H45.1171C45.1171 18.2829 45.0207 18.0904 44.828 17.9941C44.6353 17.8978 44.3461 17.8016 44.057 17.8016C43.4788 17.8016 43.1897 17.9941 43.1897 18.3791C43.1897 18.7642 43.1897 18.7642 43.3824 18.8604C43.4788 18.9567 43.7679 19.0529 44.1534 19.1492H44.6353C45.3098 19.3417 45.8881 19.5342 46.1772 19.823C46.4663 20.1118 46.659 20.4968 46.659 20.9781C46.659 21.4594 46.4663 22.0369 45.9844 22.3257C45.5026 22.6145 44.9244 22.807 44.1534 22.807L44.2498 22.9033Z" fill="white"/>
<path d="M47.334 17.0322H52.2489V18.2836H50.4178V22.904H49.0687V18.2836H47.334V17.0322Z" fill="white"/>
<path d="M60.4399 17.0322V18.2836H57.356V19.3424H60.1508V20.4975H57.356V21.6526H60.4399V22.904H56.0068V17.1285H60.4399V17.0322Z" fill="white"/>
<path d="M65.9337 17.0322V18.2836H63.0425V19.3424H65.7409V20.4975H63.0425V22.8077H61.6934V17.0322H65.9337Z" fill="white"/>
<path d="M71.4268 17.0322V18.2836H68.5357V19.3424H71.2341V20.4975H68.5357V22.8077H67.1865V17.0322H71.4268Z" fill="white"/>
<path d="M77.016 17.0322V18.2836H73.9322V19.3424H76.7269V20.4975H73.9322V21.6526H77.016V22.904H72.583V17.1285H77.016V17.0322Z" fill="white"/>
<path d="M80.8706 22.9036C80.0033 22.9036 79.3287 22.6148 78.7505 22.0373C78.1722 21.4597 77.9795 20.7859 77.9795 19.8234C77.9795 18.8608 78.2686 18.187 78.7505 17.6094C79.2323 17.0319 80.0033 16.8394 80.8706 16.8394C81.7379 16.8394 82.2198 17.0319 82.7016 17.4169C83.1835 17.8019 83.569 18.3795 83.6653 19.0533H82.2198C82.2198 18.7645 81.9307 18.4757 81.7379 18.2832C81.5452 18.0907 81.2561 17.9945 80.8706 17.9945C80.4851 17.9945 80.0033 18.187 79.8105 18.4757C79.5214 18.7645 79.425 19.2458 79.425 19.8234C79.425 20.4009 79.5214 20.8822 79.8105 21.171C80.0996 21.4597 80.3888 21.6523 80.8706 21.6523C81.3525 21.6523 81.5452 21.556 81.7379 21.3635C82.027 21.171 82.1234 20.8822 82.2198 20.4972H83.569C83.569 21.2672 83.1835 21.8448 82.7016 22.2298C82.2198 22.6148 81.5452 22.8074 80.8706 22.8074V22.9036Z" fill="white"/>
<path d="M84.2441 17.0322H89.159V18.2836H87.328V22.904H85.9788V18.2836H84.2441V17.0322Z" fill="white"/>
<path d="M91.6656 22.8077H90.3164V17.0322H91.6656V22.8077Z" fill="white"/>
<path d="M96.1939 19.5345L97.0613 16.9355H98.5068L96.4831 22.711H94.8448L92.7246 16.9355H94.1702L95.0375 19.5345C95.3266 20.4008 95.5193 21.0746 95.6157 21.5559C95.8085 20.7859 96.0012 20.1121 96.1939 19.5345Z" fill="white"/>
<path d="M103.999 17.0322V18.2836H100.916V19.3424H103.71V20.4975H100.916V21.6526H103.999V22.904H99.5664V17.1285H103.999V17.0322Z" fill="white"/>
<path d="M27.054 114V113.105L30.4148 109.426C30.8092 108.995 31.134 108.621 31.3892 108.303C31.6444 107.981 31.8333 107.679 31.956 107.398C32.0819 107.113 32.1449 106.814 32.1449 106.503C32.1449 106.145 32.0587 105.835 31.8864 105.573C31.7173 105.311 31.4853 105.109 31.1903 104.967C30.8954 104.824 30.5639 104.753 30.196 104.753C29.8049 104.753 29.4635 104.834 29.1719 104.996C28.8835 105.156 28.6598 105.379 28.5007 105.668C28.3449 105.956 28.267 106.294 28.267 106.682H27.0938C27.0938 106.085 27.2313 105.562 27.5064 105.111C27.7815 104.66 28.156 104.309 28.63 104.057C29.1072 103.805 29.6425 103.679 30.2358 103.679C30.8324 103.679 31.361 103.805 31.8217 104.057C32.2824 104.309 32.6437 104.648 32.9055 105.076C33.1674 105.504 33.2983 105.979 33.2983 106.503C33.2983 106.877 33.2304 107.244 33.0945 107.602C32.9619 107.956 32.7299 108.352 32.3984 108.79C32.0703 109.224 31.6146 109.754 31.0312 110.381L28.7443 112.827V112.906H33.4773V114H27.054ZM38.7116 114.139C37.9625 114.139 37.3245 113.935 36.7975 113.528C36.2705 113.117 35.8678 112.522 35.5894 111.743C35.311 110.961 35.1718 110.016 35.1718 108.909C35.1718 107.809 35.311 106.869 35.5894 106.09C35.8711 105.308 36.2755 104.711 36.8025 104.3C37.3328 103.886 37.9691 103.679 38.7116 103.679C39.454 103.679 40.0887 103.886 40.6157 104.3C41.146 104.711 41.5503 105.308 41.8287 106.09C42.1105 106.869 42.2513 107.809 42.2513 108.909C42.2513 110.016 42.1121 110.961 41.8337 111.743C41.5553 112.522 41.1526 113.117 40.6256 113.528C40.0986 113.935 39.4606 114.139 38.7116 114.139ZM38.7116 113.045C39.454 113.045 40.0307 112.687 40.4417 111.972C40.8527 111.256 41.0582 110.235 41.0582 108.909C41.0582 108.027 40.9637 107.277 40.7748 106.657C40.5892 106.037 40.3207 105.565 39.9694 105.24C39.6214 104.915 39.2021 104.753 38.7116 104.753C37.9758 104.753 37.4007 105.116 36.9864 105.842C36.5721 106.564 36.365 107.587 36.365 108.909C36.365 109.791 36.4578 110.54 36.6434 111.156C36.829 111.773 37.0958 112.242 37.4438 112.563C37.7951 112.885 38.2177 113.045 38.7116 113.045ZM44.0005 114V113.105L47.3613 109.426C47.7557 108.995 48.0806 108.621 48.3358 108.303C48.591 107.981 48.7799 107.679 48.9025 107.398C49.0285 107.113 49.0914 106.814 49.0914 106.503C49.0914 106.145 49.0053 105.835 48.8329 105.573C48.6639 105.311 48.4319 105.109 48.1369 104.967C47.8419 104.824 47.5105 104.753 47.1426 104.753C46.7515 104.753 46.4101 104.834 46.1184 104.996C45.8301 105.156 45.6064 105.379 45.4473 105.668C45.2915 105.956 45.2136 106.294 45.2136 106.682H44.0403C44.0403 106.085 44.1779 105.562 44.453 105.111C44.728 104.66 45.1026 104.309 45.5765 104.057C46.0538 103.805 46.5891 103.679 47.1824 103.679C47.7789 103.679 48.3076 103.805 48.7683 104.057C49.229 104.309 49.5903 104.648 49.8521 105.076C50.1139 105.504 50.2449 105.979 50.2449 106.503C50.2449 106.877 50.1769 107.244 50.041 107.602C49.9084 107.956 49.6764 108.352 49.345 108.79C49.0169 109.224 48.5611 109.754 47.9778 110.381L45.6909 112.827V112.906H50.4238V114H44.0005ZM55.5189 114.139C54.9356 114.139 54.4103 114.023 53.9429 113.791C53.4756 113.559 53.1011 113.241 52.8193 112.837C52.5376 112.432 52.3835 111.972 52.357 111.455H53.5502C53.5966 111.915 53.8054 112.296 54.1766 112.598C54.5511 112.896 54.9986 113.045 55.5189 113.045C55.9365 113.045 56.3077 112.948 56.6326 112.752C56.9607 112.557 57.2175 112.288 57.4032 111.947C57.5921 111.602 57.6865 111.213 57.6865 110.778C57.6865 110.334 57.5888 109.938 57.3932 109.59C57.201 109.239 56.9358 108.962 56.5978 108.76C56.2597 108.558 55.8736 108.455 55.4394 108.452C55.1278 108.448 54.808 108.496 54.4799 108.596C54.1517 108.692 53.8816 108.816 53.6695 108.969L52.5161 108.83L53.1326 103.818H58.4223V104.912H54.1666L53.8087 107.915H53.8684C54.0772 107.749 54.339 107.612 54.6539 107.502C54.9687 107.393 55.2969 107.338 55.6382 107.338C56.2613 107.338 56.8165 107.487 57.3037 107.786C57.7943 108.08 58.1787 108.485 58.4571 108.999C58.7389 109.512 58.8797 110.099 58.8797 110.759C58.8797 111.408 58.7339 111.988 58.4422 112.499C58.1539 113.006 57.7561 113.407 57.249 113.702C56.7419 113.993 56.1652 114.139 55.5189 114.139Z" fill="white"/>
<path d="M40.6 76.8H36.5L35.9 75H30.5L29.9 76.8H26L30.9 63H35.5L40.6 76.8ZM32.5 68.6L31.5 71.8H34.8L33.8 68.6C33.4 67.5 33.2 66.8 33.1 66.4C32.8 67.5 32.6 68.2 32.4 68.6H32.5Z" fill="white"/>
<path d="M55.2 66.8999L56.1 62.8999H60.1L56.4 76.6999H52.1L51.2 72.5999C50.8 70.6999 50.5 68.9999 50.3 67.5999C50.1 69.0999 49.7 70.7999 49.4 72.5999L48.5 76.6999H44.2L40.5 62.8999H44.5L45.4 66.8999C46 69.3999 46.4 71.2999 46.6 72.3999C46.9 70.5999 47.2 68.7999 47.6 66.8999L48.4 62.8999H52.2L53 66.8999C53.4 68.7999 53.7 70.5999 54 72.3999C54.2 71.1999 54.6 69.3999 55.2 66.8999Z" fill="white"/>
<path d="M74.6996 76.8H70.5996L69.9996 75H64.5996L63.9996 76.8H60.0996L64.9996 63H69.5996L74.6996 76.8ZM66.5996 68.6L65.5996 71.8H68.8996L67.8996 68.6C67.4996 67.5 67.2996 66.8 67.1996 66.4C66.8996 67.5 66.6996 68.2 66.4996 68.6H66.5996Z" fill="white"/>
<path d="M88.6004 73.4999V75.2999C88.7004 75.8999 88.8004 76.2999 89.0004 76.6999H85.0004C84.8004 76.3999 84.8004 75.8999 84.7004 75.2999V73.6999C84.7004 72.9999 84.5004 72.4999 84.2004 72.2999C83.9004 71.9999 83.4004 71.8999 82.8004 71.8999H80.8004V76.6999H76.9004V62.8999H83.7004C85.5004 62.8999 86.8004 63.2999 87.6004 63.9999C88.4004 64.7999 88.8004 65.7999 88.8004 66.8999C88.8004 67.9999 88.6004 68.1999 88.2004 68.7999C87.8004 69.3999 87.3004 69.7999 86.6004 70.0999C87.3004 70.3999 87.8004 70.6999 88.0004 71.1999C88.3004 71.6999 88.4004 72.3999 88.5004 73.2999L88.6004 73.4999ZM80.8004 65.9999V69.1999H83.1004C84.2004 69.1999 84.8004 68.6999 84.8004 67.5999C84.8004 66.4999 84.2004 65.9999 83.1004 65.9999H80.8004Z" fill="white"/>
<path d="M91.7002 63H97.7002C100.1 63 101.9 63.6 103.1 64.9C104.3 66.2 104.9 67.8 104.9 69.9C104.9 72 104.3 73.7 103.1 74.9C101.9 76.1 100.1 76.8 97.7002 76.8H91.7002V63ZM95.6002 73.5H97.7002C99.8002 73.5 100.9 72.3 100.9 69.9C100.9 67.5 99.8002 66.3 97.7002 66.3H95.6002V73.6V73.5Z" fill="white"/>
<path d="M39.9002 87.5999L40.7002 84.0999H44.3002L41.0002 96.3998H37.1002L36.3002 92.6999C35.9002 90.9999 35.7002 89.4999 35.5002 88.1999C35.3002 89.5999 35.0002 91.0999 34.7002 92.6999L33.9002 96.3998H30.0002L26.7002 84.0999H30.3002L31.1002 87.5999C31.6002 89.7999 32.0002 91.4998 32.1002 92.4998C32.4002 90.8998 32.7002 89.1999 33.0002 87.5999L33.7002 84.0999H37.1002L37.8002 87.5999C38.1002 89.2999 38.5002 90.8998 38.7002 92.4998C38.9002 91.4998 39.2002 89.7999 39.7002 87.5999H39.9002Z" fill="white"/>
<path d="M49.7998 96.3998H46.2998V84.0999H49.7998V96.3998Z" fill="white"/>
<path d="M60.7002 86.0999V84.0999H64.0002V96.3998H60.3002L57.7002 91.9998C57.0002 90.7998 56.4002 89.7998 56.0002 88.9998C56.0002 90.6998 56.0002 92.4998 56.0002 94.3998V96.3998H52.7002V84.0999H56.4002L59.0002 88.4998C59.6002 89.5998 60.2002 90.5999 60.7002 91.5999C60.7002 89.8999 60.7002 88.0999 60.7002 86.1999V86.0999Z" fill="white"/>
<path d="M74.9004 86.0996V84.0996H78.2004V96.3996H74.5004L71.9004 91.9996C71.2004 90.7996 70.6004 89.7996 70.2004 88.9996C70.2004 90.6996 70.2004 92.4996 70.2004 94.3996V96.3996H66.9004V84.0996H70.6004L73.2004 88.4996C73.8004 89.5996 74.4004 90.5996 74.9004 91.5996C74.9004 89.8996 74.9004 88.0996 74.9004 86.1996V86.0996Z" fill="white"/>
<path d="M90.9998 84.0999V87.1999H84.6998V88.7999H90.3998V91.6999H84.6998V93.3998H90.9998V96.4998H81.2998V84.1999H90.9998V84.0999Z" fill="white"/>
<path d="M104 93.4998V95.0999C104 95.5999 104.2 95.9999 104.4 96.2999H100.8C100.7 95.9999 100.6 95.5999 100.6 95.0999V93.6999C100.6 93.0999 100.4 92.6998 100.1 92.3998C99.8 92.1998 99.4 92.0999 98.8 92.0999H97V96.3998H93.5V84.0999H99.6C101.2 84.0999 102.3 84.3999 103.1 85.0999C103.8 85.7999 104.2 86.6999 104.2 87.6999C104.2 88.6999 104 88.8998 103.7 89.3998C103.4 89.8998 102.9 90.2999 102.3 90.5999C102.9 90.7999 103.4 91.1999 103.6 91.5999C103.8 91.9999 104 92.6998 104 93.4998ZM97 86.7999V89.5999H99.1C100.1 89.5999 100.6 89.0999 100.6 88.1999C100.6 87.2999 100.1 86.7999 99.1 86.7999H97Z" fill="white"/>
<defs>
<filter id="filter0_d_4521_12914" x="0.8" y="0" width="126.1" height="155.2" filterUnits="userSpaceOnUse" color-interpolation-filters="sRGB">
<feFlood flood-opacity="0" result="BackgroundImageFix"/>
<feColorMatrix in="SourceAlpha" type="matrix" values="0 0 0 0 0 0 0 0 0 0 0 0 0 0 0 0 0 0 127 0" result="hardAlpha"/>
<feOffset dx="-3.4" dy="4.8"/>
<feGaussianBlur stdDeviation="3.4"/>
<feColorMatrix type="matrix" values="0 0 0 0 0.137255 0 0 0 0 0.121569 0 0 0 0 0.12549 0 0 0 0.2 0"/>
<feBlend mode="normal" in2="BackgroundImageFix" result="effect1_dropShadow_4521_12914"/>
<feBlend mode="normal" in="SourceGraphic" in2="effect1_dropShadow_4521_12914" result="shape"/>
</filter>
<linearGradient id="paint0_linear_4521_12914" x1="123.5" y1="129.05" x2="19.3304" y2="2.00001" gradientUnits="userSpaceOnUse">
<stop stop-color="#080937"/>
<stop offset="0.785" stop-color="#234C8F"/>
<stop offset="1" stop-color="#509CFF"/>
</linearGradient>
</defs>
</svg>
