<svg width="32" height="32" viewBox="0 0 32 32" fill="none" xmlns="http://www.w3.org/2000/svg">
<g clip-path="url(#clip0_640_9931)">
<path d="M15.87 0.260012C12.7827 0.260012 9.76468 1.17551 7.1977 2.89073C4.63069 4.60595 2.62995 7.04386 1.44848 9.89614C0.267018 12.7485 -0.0421078 15.8871 0.560198 18.9151C1.1625 21.943 2.64919 24.7245 4.83225 26.9075C7.01531 29.0906 9.79668 30.5773 12.8247 31.1796C15.8527 31.7819 18.9913 31.4727 21.8436 30.2913C24.6959 29.1098 27.1338 27.1091 28.849 24.5421C30.5643 21.975 31.4798 18.9571 31.4798 15.8698C31.4809 13.8196 31.0779 11.7892 30.2939 9.89481C29.5098 8.00049 28.36 6.27923 26.9103 4.82951C25.4605 3.37978 23.7393 2.23002 21.8449 1.44595C19.9506 0.661887 17.9202 0.258893 15.87 0.260012ZM14.451 7.35536C14.451 6.979 14.6004 6.61804 14.8666 6.35192C15.1327 6.08579 15.4936 5.93629 15.87 5.93629C16.2464 5.93629 16.6073 6.08579 16.8734 6.35192C17.1396 6.61804 17.2891 6.979 17.2891 7.35536V13.0316C17.2891 13.408 17.1396 13.7689 16.8734 14.0351C16.6073 14.3012 16.2464 14.4507 15.87 14.4507C15.4936 14.4507 15.1327 14.3012 14.8666 14.0351C14.6004 13.7689 14.451 13.408 14.451 13.0316V7.35536ZM22.8944 22.8941C21.0314 24.7572 18.5047 25.8037 15.87 25.8037C13.2354 25.8037 10.7086 24.7572 8.84566 22.8941C6.98264 21.0312 5.93603 18.5045 5.93603 15.8698C5.93603 13.2351 6.98264 10.7084 8.84566 8.84537C9.11149 8.5811 9.47114 8.43273 9.84609 8.43273C10.221 8.43273 10.5806 8.5811 10.8465 8.84537C10.9812 8.97485 11.0884 9.13025 11.1615 9.30211C11.2347 9.47405 11.2725 9.65895 11.2725 9.8458C11.2725 10.0326 11.2347 10.2175 11.1615 10.3895C11.0884 10.5614 10.9812 10.7167 10.8465 10.8462C9.856 11.8392 9.18205 13.1036 8.90973 14.4795C8.63734 15.8553 8.77892 17.281 9.31653 18.5765C9.85405 19.8719 10.7635 20.9791 11.9299 21.7579C13.0963 22.5368 14.4674 22.9525 15.87 22.9525C17.2726 22.9525 18.6437 22.5368 19.8101 21.7579C20.9765 20.9791 21.886 19.8719 22.4236 18.5765C22.9611 17.281 23.1027 15.8553 22.8304 14.4795C22.558 13.1036 21.884 11.8392 20.8935 10.8462C20.7588 10.7167 20.6517 10.5614 20.5785 10.3895C20.5053 10.2175 20.4676 10.0326 20.4676 9.8458C20.4676 9.65895 20.5053 9.47405 20.5785 9.30211C20.6517 9.13025 20.7588 8.97485 20.8935 8.84537C21.1594 8.5811 21.5191 8.43273 21.8939 8.43273C22.2689 8.43273 22.6285 8.5811 22.8944 8.84537C23.8169 9.76783 24.5487 10.8629 25.048 12.0682C25.5472 13.2734 25.8042 14.5652 25.8042 15.8698C25.8042 17.1743 25.5472 18.4661 25.048 19.6714C24.5487 20.8767 23.8169 21.9718 22.8944 22.8941Z" fill="black"/>
</g>
<defs>
<clipPath id="clip0_640_9931">
<rect width="32" height="32" fill="white"/>
</clipPath>
</defs>
</svg>
