<svg width="52" height="52" viewBox="0 0 52 52" fill="none" xmlns="http://www.w3.org/2000/svg">
<rect width="52" height="52" rx="26" fill="#F6F6F9"/>
<g clip-path="url(#clip0_103_6045)">
<path d="M25.6403 39.4973C22.0224 38.4038 18.9379 36.5863 16.713 33.5551C15.2562 31.5702 14.5634 29.3164 14.5149 26.8565L14.5149 26.8564C14.4943 25.8163 14.4994 24.7794 14.5046 23.7354C14.507 23.265 14.5093 22.7932 14.5093 22.3189V21.8189H14.507C14.5071 21.599 14.5072 21.379 14.5073 21.1589C14.5081 19.9415 14.5088 18.7221 14.5024 17.5035C16.3486 16.8433 18.1937 16.1806 20.0385 15.518L20.0393 15.5178C21.9052 14.8476 23.7707 14.1776 25.6371 13.5103C25.6474 13.5066 25.673 13.5006 25.7067 13.5C25.7396 13.4995 25.7581 13.5045 25.7595 13.5049L25.7595 13.5049C27.5887 14.159 29.4347 14.8225 31.2812 15.4862C33.1597 16.1614 35.0387 16.8367 36.9011 17.5027C36.8907 20.4409 36.8835 23.3806 36.8972 26.32C36.9183 30.8296 34.955 34.2841 31.268 36.8844C29.6084 38.0547 27.7963 38.9231 25.8345 39.4754C25.7887 39.4883 25.7415 39.4967 25.7005 39.4992C25.6618 39.5016 25.6429 39.4978 25.6404 39.4973C25.6401 39.4973 25.6401 39.4973 25.6403 39.4973ZM25.6403 39.4973C25.6403 39.4973 25.6404 39.4974 25.6405 39.4974L25.4958 39.976L25.6403 39.4973ZM30.8074 21.4864H30.6019L30.4557 21.631C28.2297 23.8337 25.9883 26.051 23.7216 28.2932C23.4783 28.0524 23.2355 27.8119 22.9935 27.5723C22.2962 26.8817 21.6054 26.1978 20.9296 25.5293L20.5786 25.182L20.227 25.5286L20.1526 25.602C19.719 26.0294 19.296 26.4464 18.921 26.8166L18.5609 27.172L18.9206 27.5279L18.9211 27.5284C20.4176 29.0087 21.9352 30.5099 23.4341 31.9918L23.7857 32.3395L24.1372 31.9917L32.5257 23.6938L32.8847 23.3386L32.5261 22.9832C32.0906 22.5516 31.6406 22.1064 31.1599 21.6309L31.0138 21.4864H30.8082H30.8074Z" stroke="#010101"/>
</g>
<defs>
<clipPath id="clip0_103_6045">
<rect width="28" height="28" fill="white" transform="translate(12 12)"/>
</clipPath>
</defs>
</svg>
