<svg width="48" height="48" viewBox="0 0 48 48" fill="none" xmlns="http://www.w3.org/2000/svg">
<path d="M23.9995 15.9458C19.5578 15.9458 15.9443 19.5592 15.9443 24.0006C15.9443 28.4424 19.5578 32.0558 23.9995 32.0558C28.4409 32.0558 32.0543 28.4424 32.0543 24.0006C32.0543 19.5592 28.4409 15.9458 23.9995 15.9458ZM28.7818 22.4837L23.0112 28.2543C22.769 28.4965 22.4513 28.6178 22.1339 28.6178C21.8165 28.6178 21.4991 28.4969 21.2569 28.2543L19.0517 26.0491C18.5672 25.565 18.5672 24.7796 19.0517 24.2951C19.5358 23.8107 20.3212 23.8107 20.8057 24.2951L22.1339 25.6233L27.0278 20.7297C27.512 20.2453 28.2974 20.2453 28.7818 20.7297C29.2663 21.2139 29.2663 21.9993 28.7818 22.4837Z" fill="#BDBDBD"/>
<path d="M41.958 14.3324L41.9567 14.2995C41.9384 13.8935 41.9261 13.4638 41.9187 12.9858C41.8842 10.6548 40.0312 8.72667 37.6998 8.59636C32.8391 8.32511 29.079 6.74014 25.8661 3.60858L25.8387 3.58245C24.7908 2.6216 23.21 2.6216 22.1617 3.58245L22.1343 3.60858C18.9215 6.74014 15.1613 8.32511 10.3006 8.59669C7.96958 8.72667 6.11626 10.6548 6.08174 12.9862C6.07465 13.4609 6.06207 13.8906 6.04368 14.2995L6.04175 14.376C5.94724 19.3325 5.82984 25.5011 7.89346 31.1001C9.02816 34.1791 10.7467 36.8555 13.0009 39.0556C15.5683 41.5611 18.9312 43.5502 22.9958 44.9674C23.1281 45.0136 23.2655 45.051 23.4054 45.079C23.6028 45.1184 23.8015 45.1381 24.0002 45.1381C24.1989 45.1381 24.3979 45.1184 24.595 45.079C24.735 45.051 24.8733 45.0132 25.0062 44.9668C29.0661 43.547 32.4253 41.5569 34.9905 39.0517C37.2438 36.851 38.9623 34.1739 40.0979 31.0943C42.1693 25.4785 42.0522 19.2983 41.958 14.3324ZM23.9996 34.5364C18.19 34.5364 13.4638 29.8102 13.4638 24.0006C13.4638 18.191 18.19 13.4648 23.9996 13.4648C29.8089 13.4648 34.5354 18.191 34.5354 24.0006C34.5354 29.8102 29.8089 34.5364 23.9996 34.5364Z" fill="#BDBDBD"/>
</svg>
