<svg width="52" height="52" viewBox="0 0 52 52" fill="none" xmlns="http://www.w3.org/2000/svg">
<rect width="52" height="52" rx="26" fill="#F6F6F9"/>
<g clip-path="url(#clip0_103_6063)">
<path d="M22.8773 22.5543H14.2436C13.9495 22.5543 13.7114 22.3303 13.7114 22.0535C13.7114 21.7768 13.9495 21.5528 14.2436 21.5528H22.3452V13.9275C22.3452 13.6508 22.5833 13.4268 22.8773 13.4268C23.1714 13.4268 23.4095 13.6508 23.4095 13.9275V22.0535C23.4095 22.3303 23.1714 22.5543 22.8773 22.5543Z" fill="black"/>
<path d="M22.8773 37.3867C22.5833 37.3867 22.3452 37.1767 22.3452 36.9172V29.7686H14.2436C13.9495 29.7686 13.7114 29.5586 13.7114 29.2991C13.7114 29.0396 13.9495 28.8296 14.2436 28.8296H22.8773C23.1714 28.8296 23.4095 29.0396 23.4095 29.2991V36.9172C23.4095 37.1767 23.1714 37.3867 22.8773 37.3867Z" fill="black"/>
<path d="M29.0761 37.3867C28.782 37.3867 28.5439 37.1767 28.5439 36.9172V29.2991C28.5439 29.0396 28.782 28.8296 29.0761 28.8296H37.7099C38.004 28.8296 38.242 29.0396 38.242 29.2991C38.242 29.5586 38.004 29.7686 37.7099 29.7686H29.6082V36.9172C29.6082 37.1767 29.3702 37.3867 29.0761 37.3867Z" fill="black"/>
<path d="M37.7099 22.5543H29.076C28.782 22.5543 28.5439 22.3303 28.5439 22.0535V13.9275C28.5439 13.6508 28.782 13.4268 29.076 13.4268C29.3701 13.4268 29.6081 13.6508 29.6081 13.9275V21.5528H37.7099C38.004 21.5528 38.242 21.7768 38.242 22.0535C38.242 22.3303 38.004 22.5543 37.7099 22.5543Z" fill="black"/>
<path d="M22.8913 22.5544C22.7591 22.5544 22.6262 22.5036 22.5254 22.4028L15.0039 14.8811C14.8014 14.6786 14.8014 14.3515 15.0039 14.1491C15.2063 13.9467 15.5334 13.9467 15.7358 14.1491L23.2573 21.6709C23.4598 21.8733 23.4598 22.2004 23.2573 22.4028C23.1565 22.5036 23.0236 22.5544 22.8913 22.5544Z" fill="black"/>
<path d="M36.5832 37.3867C36.451 37.3867 36.3181 37.3359 36.2173 37.235L28.6958 29.7135C28.4933 29.511 28.4933 29.1839 28.6958 28.9814C28.8982 28.779 29.2253 28.779 29.4277 28.9814L36.9492 36.503C37.1516 36.7054 37.1516 37.0326 36.9492 37.235C36.8484 37.3359 36.7154 37.3867 36.5832 37.3867Z" fill="black"/>
<path d="M15.3699 37.3867C15.2376 37.3867 15.1047 37.3359 15.0039 37.235C14.8014 37.0326 14.8014 36.7054 15.0039 36.503L22.5254 28.9814C22.7278 28.779 23.0549 28.779 23.2573 28.9814C23.4598 29.1839 23.4598 29.511 23.2573 29.7135L15.7358 37.235C15.635 37.3359 15.5021 37.3867 15.3699 37.3867Z" fill="black"/>
<path d="M29.0617 22.5537C28.9295 22.5537 28.7966 22.5029 28.6957 22.4021C28.4933 22.1996 28.4933 21.8725 28.6957 21.6701L36.2173 14.1491C36.4197 13.9467 36.7468 13.9467 36.9492 14.1491C37.1516 14.3515 37.1516 14.6786 36.9492 14.8811L29.4277 22.4028C29.3268 22.5036 29.1939 22.5544 29.0617 22.5544V22.5537Z" fill="black"/>
</g>
<defs>
<clipPath id="clip0_103_6063">
<rect width="28" height="28" fill="white" transform="translate(12 12)"/>
</clipPath>
</defs>
</svg>
