<svg width="84" height="16" viewBox="0 0 84 16" fill="none" xmlns="http://www.w3.org/2000/svg">
<path d="M15.5754 5.71885L10.6567 4.96639L8.45208 0.263392C8.28741 -0.0877974 7.71208 -0.0877974 7.54741 0.263392L5.34342 4.96639L0.424765 5.71885C0.0207661 5.78094 -0.140567 6.27301 0.142766 6.56344L3.71609 10.2316L2.87143 15.4173C2.80409 15.8292 3.24342 16.1384 3.60676 15.9361L8.00008 13.5044L12.3934 15.9367C12.7534 16.137 13.1967 15.8339 13.1287 15.418L12.2841 10.2322L15.8574 6.56411C16.1407 6.27301 15.9787 5.78094 15.5754 5.71885Z" fill="#FFCB13"/>
<path fill-rule="evenodd" clip-rule="evenodd" d="M24.9994 7.74847e-09C24.8143 -3.01139e-05 24.6293 0.0877619 24.547 0.263376L22.3431 4.96609L17.4247 5.7185C17.0208 5.78059 16.8594 6.27262 17.1428 6.56304L20.7159 10.2309L19.8713 15.4163C19.8039 15.8283 20.2432 16.1374 20.6065 15.9351L24.9994 13.5038V7.74847e-09Z" fill="#EEEEEE"/>
<path fill-rule="evenodd" clip-rule="evenodd" d="M24.9995 13.5037V0C25.1844 5.36061e-05 25.3693 0.0878456 25.4516 0.263376L27.6562 4.96609L32.5745 5.7185C32.9778 5.78059 33.1398 6.27262 32.8565 6.56371L29.2834 10.2316L30.128 15.417C30.196 15.8329 29.7527 16.136 29.3927 15.9358L24.9997 13.5036L24.9995 13.5037Z" fill="#EEEEEE"/>
<path fill-rule="evenodd" clip-rule="evenodd" d="M41.9994 7.74847e-09C41.8143 -3.01139e-05 41.6293 0.0877619 41.547 0.263376L39.3431 4.96609L34.4247 5.7185C34.0208 5.78059 33.8594 6.27262 34.1428 6.56304L37.7159 10.2309L36.8713 15.4163C36.8039 15.8283 37.2432 16.1374 37.6065 15.9351L41.9994 13.5038V7.74847e-09Z" fill="#EEEEEE"/>
<path fill-rule="evenodd" clip-rule="evenodd" d="M41.9995 13.5037V0C42.1844 5.36061e-05 42.3693 0.0878456 42.4516 0.263376L44.6562 4.96609L49.5745 5.7185C49.9778 5.78059 50.1398 6.27262 49.8565 6.56371L46.2834 10.2316L47.128 15.417C47.196 15.8329 46.7527 16.136 46.3927 15.9358L41.9997 13.5036L41.9995 13.5037Z" fill="#EEEEEE"/>
<path fill-rule="evenodd" clip-rule="evenodd" d="M58.9994 7.74847e-09C58.8143 -3.01139e-05 58.6293 0.0877619 58.547 0.263376L56.3431 4.96609L51.4247 5.7185C51.0208 5.78059 50.8594 6.27262 51.1428 6.56304L54.7159 10.2309L53.8713 15.4163C53.8039 15.8283 54.2432 16.1374 54.6065 15.9351L58.9994 13.5038V7.74847e-09Z" fill="#EEEEEE"/>
<path fill-rule="evenodd" clip-rule="evenodd" d="M58.9995 13.5037V0C59.1844 5.36061e-05 59.3693 0.0878456 59.4516 0.263376L61.6562 4.96609L66.5745 5.7185C66.9778 5.78059 67.1398 6.27262 66.8565 6.56371L63.2834 10.2316L64.128 15.417C64.196 15.8329 63.7527 16.136 63.3927 15.9358L58.9997 13.5036L58.9995 13.5037Z" fill="#EEEEEE"/>
<path fill-rule="evenodd" clip-rule="evenodd" d="M75.9994 7.74847e-09C75.8143 -3.01139e-05 75.6293 0.0877619 75.547 0.263376L73.3431 4.96609L68.4247 5.7185C68.0208 5.78059 67.8594 6.27262 68.1428 6.56304L71.7159 10.2309L70.8713 15.4163C70.8039 15.8283 71.2432 16.1374 71.6065 15.9351L75.9994 13.5038V7.74847e-09Z" fill="#EEEEEE"/>
<path fill-rule="evenodd" clip-rule="evenodd" d="M75.9995 13.5037V0C76.1844 5.36061e-05 76.3693 0.0878456 76.4516 0.263376L78.6562 4.96609L83.5745 5.7185C83.9778 5.78059 84.1398 6.27262 83.8565 6.56371L80.2834 10.2316L81.128 15.417C81.196 15.8329 80.7527 16.136 80.3927 15.9358L75.9997 13.5036L75.9995 13.5037Z" fill="#EEEEEE"/>
</svg>
