<svg width="48" height="48" viewBox="0 0 48 48" fill="none" xmlns="http://www.w3.org/2000/svg">
<path d="M44.8386 10.2282L40.0139 9.30241L37.6427 5L35.2715 9.30241L30.4468 10.2282L33.8059 13.8129L33.1953 18.6873L37.6427 16.6004L42.09 18.6873L41.4795 13.8129L44.8386 10.2282Z" fill="#BDBDBD"/>
<path d="M37.4839 28.29H36.2581C37.6121 28.29 38.7097 27.1923 38.7097 25.8384C38.7097 24.4845 37.6121 23.3868 36.2581 23.3868H28.3086V19.7094C28.3086 17.0014 26.1134 14.8062 23.4054 14.8062V19.7094C23.4054 22.4173 21.2101 24.6126 18.5022 24.6126H15.4194V40.548C15.6251 40.5677 17.6606 40.4639 20.1473 41.4586L22.3751 42.3497C23.4485 42.7791 24.594 42.9997 25.75 42.9997H35.0323C36.3862 42.9997 37.4839 41.902 37.4839 40.548C37.4839 39.1941 36.3862 38.0964 35.0323 38.0964H36.2581C37.6121 38.0964 38.7097 36.9988 38.7097 35.6448C38.7097 34.2909 37.6121 33.1932 36.2581 33.1932H37.4839C38.8379 33.1932 39.9355 32.0956 39.9355 30.7416C39.9355 29.3877 38.8379 28.29 37.4839 28.29Z" fill="#BDBDBD"/>
<path d="M3.16113 42.9998H12.9676V22.1611H3.16113V42.9998ZM6.83855 25.8385H9.29016V28.2902H6.83855V25.8385Z" fill="#BDBDBD"/>
</svg>
