<svg width="285" height="64" viewBox="0 0 285 64" fill="none" xmlns="http://www.w3.org/2000/svg">
<path d="M62.3016 22.8754L42.6269 19.8656L33.8083 1.05357C33.1496 -0.35119 30.8483 -0.35119 30.1896 1.05357L21.3737 19.8656L1.69906 22.8754C0.0830643 23.1238 -0.562267 25.092 0.571063 26.2538L14.8644 40.9263L11.4857 61.6692C11.2164 63.3169 12.9737 64.5535 14.427 63.7443L32.0003 54.0178L49.5736 63.7469C51.0136 64.5481 52.7869 63.3356 52.5149 61.6718L49.1363 40.9289L63.4296 26.2564C64.5629 25.092 63.9149 23.1238 62.3016 22.8754Z" fill="#FFCB13"/>
<path d="M90.3047 21.875V56H83.2969V21.875H90.3047ZM100.805 21.875V27.3828H72.9609V21.875H100.805ZM109.5 36.1719V56H102.75V30.6406H109.102L109.5 36.1719ZM117.141 30.4766L117.023 36.7344C116.695 36.6875 116.297 36.6484 115.828 36.6172C115.375 36.5703 114.961 36.5469 114.586 36.5469C113.633 36.5469 112.805 36.6719 112.102 36.9219C111.414 37.1562 110.836 37.5078 110.367 37.9766C109.914 38.4453 109.57 39.0156 109.336 39.6875C109.117 40.3594 108.992 41.125 108.961 41.9844L107.602 41.5625C107.602 39.9219 107.766 38.4141 108.094 37.0391C108.422 35.6484 108.898 34.4375 109.523 33.4062C110.164 32.375 110.945 31.5781 111.867 31.0156C112.789 30.4531 113.844 30.1719 115.031 30.1719C115.406 30.1719 115.789 30.2031 116.18 30.2656C116.57 30.3125 116.891 30.3828 117.141 30.4766ZM135.328 49.9297V30.6406H142.078V56H135.727L135.328 49.9297ZM136.078 44.7266L138.07 44.6797C138.07 46.3672 137.875 47.9375 137.484 49.3906C137.094 50.8281 136.508 52.0781 135.727 53.1406C134.945 54.1875 133.961 55.0078 132.773 55.6016C131.586 56.1797 130.188 56.4688 128.578 56.4688C127.344 56.4688 126.203 56.2969 125.156 55.9531C124.125 55.5938 123.234 55.0391 122.484 54.2891C121.75 53.5234 121.172 52.5469 120.75 51.3594C120.344 50.1562 120.141 48.7109 120.141 47.0234V30.6406H126.891V47.0703C126.891 47.8203 126.977 48.4531 127.148 48.9688C127.336 49.4844 127.594 49.9062 127.922 50.2344C128.25 50.5625 128.633 50.7969 129.07 50.9375C129.523 51.0781 130.023 51.1484 130.57 51.1484C131.961 51.1484 133.055 50.8672 133.852 50.3047C134.664 49.7422 135.234 48.9766 135.562 48.0078C135.906 47.0234 136.078 45.9297 136.078 44.7266ZM160.945 48.9922C160.945 48.5078 160.805 48.0703 160.523 47.6797C160.242 47.2891 159.719 46.9297 158.953 46.6016C158.203 46.2578 157.117 45.9453 155.695 45.6641C154.414 45.3828 153.219 45.0312 152.109 44.6094C151.016 44.1719 150.062 43.6484 149.25 43.0391C148.453 42.4297 147.828 41.7109 147.375 40.8828C146.922 40.0391 146.695 39.0781 146.695 38C146.695 36.9375 146.922 35.9375 147.375 35C147.844 34.0625 148.508 33.2344 149.367 32.5156C150.242 31.7812 151.305 31.2109 152.555 30.8047C153.82 30.3828 155.242 30.1719 156.82 30.1719C159.023 30.1719 160.914 30.5234 162.492 31.2266C164.086 31.9297 165.305 32.8984 166.148 34.1328C167.008 35.3516 167.438 36.7422 167.438 38.3047H160.688C160.688 37.6484 160.547 37.0625 160.266 36.5469C160 36.0156 159.578 35.6016 159 35.3047C158.438 34.9922 157.703 34.8359 156.797 34.8359C156.047 34.8359 155.398 34.9688 154.852 35.2344C154.305 35.4844 153.883 35.8281 153.586 36.2656C153.305 36.6875 153.164 37.1562 153.164 37.6719C153.164 38.0625 153.242 38.4141 153.398 38.7266C153.57 39.0234 153.844 39.2969 154.219 39.5469C154.594 39.7969 155.078 40.0312 155.672 40.25C156.281 40.4531 157.031 40.6406 157.922 40.8125C159.75 41.1875 161.383 41.6797 162.82 42.2891C164.258 42.8828 165.398 43.6953 166.242 44.7266C167.086 45.7422 167.508 47.0781 167.508 48.7344C167.508 49.8594 167.258 50.8906 166.758 51.8281C166.258 52.7656 165.539 53.5859 164.602 54.2891C163.664 54.9766 162.539 55.5156 161.227 55.9062C159.93 56.2812 158.469 56.4688 156.844 56.4688C154.484 56.4688 152.484 56.0469 150.844 55.2031C149.219 54.3594 147.984 53.2891 147.141 51.9922C146.312 50.6797 145.898 49.3359 145.898 47.9609H152.297C152.328 48.8828 152.562 49.625 153 50.1875C153.453 50.75 154.023 51.1562 154.711 51.4062C155.414 51.6562 156.172 51.7812 156.984 51.7812C157.859 51.7812 158.586 51.6641 159.164 51.4297C159.742 51.1797 160.18 50.8516 160.477 50.4453C160.789 50.0234 160.945 49.5391 160.945 48.9922ZM184.312 30.6406V35.4219H169.547V30.6406H184.312ZM173.203 24.3828H179.953V48.3594C179.953 49.0938 180.047 49.6562 180.234 50.0469C180.438 50.4375 180.734 50.7109 181.125 50.8672C181.516 51.0078 182.008 51.0781 182.602 51.0781C183.023 51.0781 183.398 51.0625 183.727 51.0312C184.07 50.9844 184.359 50.9375 184.594 50.8906L184.617 55.8594C184.039 56.0469 183.414 56.1953 182.742 56.3047C182.07 56.4141 181.328 56.4688 180.516 56.4688C179.031 56.4688 177.734 56.2266 176.625 55.7422C175.531 55.2422 174.688 54.4453 174.094 53.3516C173.5 52.2578 173.203 50.8203 173.203 49.0391V24.3828ZM188.578 21.875H201.305C203.914 21.875 206.156 22.2656 208.031 23.0469C209.922 23.8281 211.375 24.9844 212.391 26.5156C213.406 28.0469 213.914 29.9297 213.914 32.1641C213.914 33.9922 213.602 35.5625 212.977 36.875C212.367 38.1719 211.5 39.2578 210.375 40.1328C209.266 40.9922 207.961 41.6797 206.461 42.1953L204.234 43.3672H193.172L193.125 37.8828H201.352C202.586 37.8828 203.609 37.6641 204.422 37.2266C205.234 36.7891 205.844 36.1797 206.25 35.3984C206.672 34.6172 206.883 33.7109 206.883 32.6797C206.883 31.5859 206.68 30.6406 206.273 29.8438C205.867 29.0469 205.25 28.4375 204.422 28.0156C203.594 27.5938 202.555 27.3828 201.305 27.3828H195.609V56H188.578V21.875ZM207.656 56L199.875 40.7891L207.305 40.7422L215.18 55.6719V56H207.656ZM232.594 50.2812V38.9844C232.594 38.1719 232.461 37.4766 232.195 36.8984C231.93 36.3047 231.516 35.8438 230.953 35.5156C230.406 35.1875 229.695 35.0234 228.82 35.0234C228.07 35.0234 227.422 35.1562 226.875 35.4219C226.328 35.6719 225.906 36.0391 225.609 36.5234C225.312 36.9922 225.164 37.5469 225.164 38.1875H218.414C218.414 37.1094 218.664 36.0859 219.164 35.1172C219.664 34.1484 220.391 33.2969 221.344 32.5625C222.297 31.8125 223.43 31.2266 224.742 30.8047C226.07 30.3828 227.555 30.1719 229.195 30.1719C231.164 30.1719 232.914 30.5 234.445 31.1562C235.977 31.8125 237.18 32.7969 238.055 34.1094C238.945 35.4219 239.391 37.0625 239.391 39.0312V49.8828C239.391 51.2734 239.477 52.4141 239.648 53.3047C239.82 54.1797 240.07 54.9453 240.398 55.6016V56H233.578C233.25 55.3125 233 54.4531 232.828 53.4219C232.672 52.375 232.594 51.3281 232.594 50.2812ZM233.484 40.5547L233.531 44.375H229.758C228.867 44.375 228.094 44.4766 227.438 44.6797C226.781 44.8828 226.242 45.1719 225.82 45.5469C225.398 45.9062 225.086 46.3281 224.883 46.8125C224.695 47.2969 224.602 47.8281 224.602 48.4062C224.602 48.9844 224.734 49.5078 225 49.9766C225.266 50.4297 225.648 50.7891 226.148 51.0547C226.648 51.3047 227.234 51.4297 227.906 51.4297C228.922 51.4297 229.805 51.2266 230.555 50.8203C231.305 50.4141 231.883 49.9141 232.289 49.3203C232.711 48.7266 232.93 48.1641 232.945 47.6328L234.727 50.4922C234.477 51.1328 234.133 51.7969 233.695 52.4844C233.273 53.1719 232.734 53.8203 232.078 54.4297C231.422 55.0234 230.633 55.5156 229.711 55.9062C228.789 56.2812 227.695 56.4688 226.43 56.4688C224.82 56.4688 223.359 56.1484 222.047 55.5078C220.75 54.8516 219.719 53.9531 218.953 52.8125C218.203 51.6562 217.828 50.3438 217.828 48.875C217.828 47.5469 218.078 46.3672 218.578 45.3359C219.078 44.3047 219.812 43.4375 220.781 42.7344C221.766 42.0156 222.992 41.4766 224.461 41.1172C225.93 40.7422 227.633 40.5547 229.57 40.5547H233.484ZM257.016 30.6406V35.4219H242.25V30.6406H257.016ZM245.906 24.3828H252.656V48.3594C252.656 49.0938 252.75 49.6562 252.938 50.0469C253.141 50.4375 253.438 50.7109 253.828 50.8672C254.219 51.0078 254.711 51.0781 255.305 51.0781C255.727 51.0781 256.102 51.0625 256.43 51.0312C256.773 50.9844 257.062 50.9375 257.297 50.8906L257.32 55.8594C256.742 56.0469 256.117 56.1953 255.445 56.3047C254.773 56.4141 254.031 56.4688 253.219 56.4688C251.734 56.4688 250.438 56.2266 249.328 55.7422C248.234 55.2422 247.391 54.4453 246.797 53.3516C246.203 52.2578 245.906 50.8203 245.906 49.0391V24.3828ZM272.531 56.4688C270.562 56.4688 268.797 56.1562 267.234 55.5312C265.672 54.8906 264.344 54.0078 263.25 52.8828C262.172 51.7578 261.344 50.4531 260.766 48.9688C260.188 47.4688 259.898 45.875 259.898 44.1875V43.25C259.898 41.3281 260.172 39.5703 260.719 37.9766C261.266 36.3828 262.047 35 263.062 33.8281C264.094 32.6562 265.344 31.7578 266.812 31.1328C268.281 30.4922 269.938 30.1719 271.781 30.1719C273.578 30.1719 275.172 30.4688 276.562 31.0625C277.953 31.6562 279.117 32.5 280.055 33.5938C281.008 34.6875 281.727 36 282.211 37.5312C282.695 39.0469 282.938 40.7344 282.938 42.5938V45.4062H262.781V40.9062H276.305V40.3906C276.305 39.4531 276.133 38.6172 275.789 37.8828C275.461 37.1328 274.961 36.5391 274.289 36.1016C273.617 35.6641 272.758 35.4453 271.711 35.4453C270.82 35.4453 270.055 35.6406 269.414 36.0312C268.773 36.4219 268.25 36.9688 267.844 37.6719C267.453 38.375 267.156 39.2031 266.953 40.1562C266.766 41.0938 266.672 42.125 266.672 43.25V44.1875C266.672 45.2031 266.812 46.1406 267.094 47C267.391 47.8594 267.805 48.6016 268.336 49.2266C268.883 49.8516 269.539 50.3359 270.305 50.6797C271.086 51.0234 271.969 51.1953 272.953 51.1953C274.172 51.1953 275.305 50.9609 276.352 50.4922C277.414 50.0078 278.328 49.2812 279.094 48.3125L282.375 51.875C281.844 52.6406 281.117 53.375 280.195 54.0781C279.289 54.7812 278.195 55.3594 276.914 55.8125C275.633 56.25 274.172 56.4688 272.531 56.4688Z" fill="black"/>
</svg>
