<svg width="32" height="32" viewBox="0 0 32 32" fill="none" xmlns="http://www.w3.org/2000/svg">
<path d="M15.9999 1.33301C13.0991 1.33301 10.2635 2.19319 7.85156 3.80479C5.43964 5.41638 3.55978 7.707 2.44969 10.387C1.33961 13.067 1.04916 16.0159 1.61507 18.861C2.18099 21.7061 3.57786 24.3194 5.62903 26.3706C7.6802 28.4217 10.2935 29.8186 13.1386 30.3845C15.9837 30.9504 18.9326 30.66 21.6126 29.5499C24.2926 28.4398 26.5832 26.56 28.1948 24.148C29.8064 21.7361 30.6666 18.9005 30.6666 15.9997C30.6676 14.0733 30.289 12.1657 29.5523 10.3857C28.8156 8.60583 27.7353 6.98857 26.3732 5.62643C25.011 4.2643 23.3938 3.184 21.6139 2.4473C19.8339 1.71061 17.9263 1.33196 15.9999 1.33301ZM14.6666 7.99968C14.6666 7.64605 14.8071 7.30692 15.0571 7.05687C15.3072 6.80682 15.6463 6.66634 15.9999 6.66634C16.3535 6.66634 16.6927 6.80682 16.9427 7.05687C17.1928 7.30692 17.3333 7.64605 17.3333 7.99968V13.333C17.3333 13.6866 17.1928 14.0258 16.9427 14.2758C16.6927 14.5259 16.3535 14.6663 15.9999 14.6663C15.6463 14.6663 15.3072 14.5259 15.0571 14.2758C14.8071 14.0258 14.6666 13.6866 14.6666 13.333V7.99968ZM22.5999 22.5997C20.8495 24.3501 18.4754 25.3335 15.9999 25.3335C13.5244 25.3335 11.1504 24.3501 9.39993 22.5997C7.6495 20.8492 6.66612 18.4752 6.66612 15.9997C6.66612 13.5242 7.6495 11.1501 9.39993 9.39968C9.64974 9.15134 9.98768 9.01195 10.3399 9.01195C10.6922 9.01195 11.0301 9.15134 11.2799 9.39968C11.4065 9.52135 11.5072 9.66733 11.5759 9.82885C11.6447 9.99037 11.6801 10.1641 11.6801 10.3397C11.6801 10.5152 11.6447 10.689 11.5759 10.8505C11.5072 11.012 11.4065 11.158 11.2799 11.2797C10.3493 12.2127 9.716 13.4006 9.46013 14.6934C9.20426 15.9861 9.33726 17.3257 9.84234 18.5429C10.3474 19.7601 11.2019 20.8003 12.2979 21.5321C13.3938 22.2639 14.6821 22.6544 15.9999 22.6544C17.3177 22.6544 18.606 22.2639 19.702 21.5321C20.7979 20.8003 21.6524 19.7601 22.1575 18.5429C22.6626 17.3257 22.7956 15.9861 22.5397 14.6934C22.2839 13.4006 21.6506 12.2127 20.7199 11.2797C20.5934 11.158 20.4927 11.012 20.4239 10.8505C20.3552 10.689 20.3197 10.5152 20.3197 10.3397C20.3197 10.1641 20.3552 9.99037 20.4239 9.82885C20.4927 9.66733 20.5934 9.52135 20.7199 9.39968C20.9697 9.15134 21.3077 9.01195 21.6599 9.01195C22.0122 9.01195 22.3501 9.15134 22.5999 9.39968C23.4667 10.2664 24.1543 11.2953 24.6234 12.4277C25.0925 13.5602 25.3339 14.7739 25.3339 15.9997C25.3339 17.2254 25.0925 18.4392 24.6234 19.5716C24.1543 20.704 23.4667 21.733 22.5999 22.5997Z" fill="url(#paint0_linear_2982_6778)"/>
<defs>
<linearGradient id="paint0_linear_2982_6778" x1="7.40756" y1="3.05877" x2="47.8398" y2="48.9149" gradientUnits="userSpaceOnUse">
<stop offset="0.214273" stop-color="#842DD5"/>
<stop offset="0.728725" stop-color="#24164A"/>
</linearGradient>
</defs>
</svg>
