<svg width="52" height="52" viewBox="0 0 52 52" fill="none" xmlns="http://www.w3.org/2000/svg">
<rect width="52" height="52" rx="26" fill="#F6F6F9"/>
<path d="M28.1527 39.9998C27.7073 39.9167 27.255 39.8597 26.8174 39.7456C24.6084 39.173 22.8911 37.9152 21.7371 35.9412C19.9657 32.913 18.2266 29.865 16.4777 26.8233C16.1019 26.1691 16.3119 25.4859 16.9813 25.1317C18.3516 24.4063 20.0633 24.8359 20.8935 26.1486C21.3901 26.9339 21.8326 27.7529 22.3004 28.5565C22.3447 28.6318 22.3784 28.7332 22.4458 28.7706C22.5519 28.8297 22.6959 28.8924 22.7991 28.8642C22.9017 28.8361 23.0007 28.7093 23.0499 28.6022C23.0941 28.5065 23.0723 28.3783 23.0723 28.2642C23.073 24.7056 23.0758 21.1471 23.0709 17.5885C23.0695 16.773 23.3505 16.1046 24.0465 15.6631C24.7208 15.2349 25.438 15.2039 26.1445 15.5828C26.861 15.9673 27.2368 16.5934 27.2501 17.4019C27.2705 18.6582 27.2564 19.9146 27.2564 21.171C27.2564 21.264 27.2564 21.3569 27.2564 21.4598C28.8024 20.8816 29.601 21.1485 30.3933 22.5027C30.9875 22.0915 31.6358 21.9534 32.3304 22.1915C33.0159 22.426 33.4528 22.9154 33.6874 23.6218C33.7689 23.5781 33.8419 23.5401 33.9143 23.5007C35.2825 22.7556 36.9739 23.7098 36.99 25.2704C37.0139 27.5895 37.0357 29.9107 36.9802 32.2291C36.8952 35.7743 34.1678 38.9948 30.6538 39.7836C30.2458 39.8752 29.8285 39.9287 29.4155 39.9998H28.1534H28.1527ZM24.0009 22.9859C24.0009 24.8049 23.9988 26.6233 24.003 28.4424C24.0037 28.7903 23.918 29.103 23.6918 29.3685C23.1004 30.0622 22.0546 29.965 21.5791 29.1628C21.1092 28.3705 20.6653 27.5628 20.1947 26.7712C19.6208 25.8064 18.4893 25.45 17.5088 25.9071C17.1843 26.0585 17.1548 26.143 17.3311 26.4494C19.0561 29.4438 20.7734 32.4432 22.5104 35.4313C24.2046 38.3462 27.6083 39.7033 30.84 38.7765C33.7239 37.9497 35.9119 35.2997 36.0327 32.3059C36.1261 29.9896 36.0762 27.6677 36.0734 25.3486C36.0727 24.6662 35.5543 24.1753 34.9061 24.1789C34.2592 24.1824 33.7773 24.6754 33.7556 25.3655C33.7471 25.6374 33.757 25.9106 33.7513 26.1824C33.7443 26.5325 33.5708 26.7303 33.2828 26.7275C32.9956 26.7247 32.8298 26.5254 32.8291 26.1719C32.827 25.5303 32.8523 24.888 32.8172 24.2486C32.8024 23.9824 32.709 23.6922 32.5664 23.4683C32.3072 23.0626 31.7868 22.9232 31.3295 23.0647C30.8526 23.2126 30.5253 23.6176 30.5141 24.1141C30.5007 24.7113 30.5204 25.3092 30.5 25.9064C30.4944 26.0684 30.4389 26.2768 30.3279 26.3719C30.2219 26.4627 30.002 26.481 29.8524 26.4451C29.6466 26.3958 29.5736 26.2001 29.5736 25.9881C29.5736 25.0655 29.5813 24.1429 29.5701 23.2204C29.5623 22.5873 29.0454 22.0851 28.4238 22.0795C27.7923 22.0732 27.2705 22.5816 27.2578 23.2267C27.2494 23.6662 27.2557 24.1056 27.255 24.5444C27.255 25.0366 27.2613 25.5289 27.2515 26.0205C27.2459 26.3029 27.0485 26.4972 26.7943 26.5008C26.5393 26.5043 26.3468 26.3148 26.3223 26.0324C26.3152 25.9536 26.3194 25.8747 26.3194 25.7951C26.3194 24.231 26.3194 22.6668 26.3194 21.1034C26.3194 19.8907 26.3215 18.678 26.318 17.466C26.3166 16.9286 26.0322 16.5096 25.5693 16.337C24.7946 16.0476 24.0044 16.6166 24.0016 17.4779C23.9967 19.3146 24.0002 21.1506 23.9995 22.9873L24.0009 22.9859Z" fill="black"/>
<path d="M25.1669 13.9027C22.5583 13.9436 20.8789 16.7014 22.0659 19.0212C22.0898 19.0677 22.1186 19.1128 22.1418 19.1599C22.2843 19.4473 22.2169 19.7149 21.9711 19.8416C21.7344 19.9635 21.4808 19.8776 21.3298 19.61C20.9182 18.8825 20.718 18.0965 20.7567 17.2627C20.8543 15.1767 22.2794 13.5154 24.3142 13.0893C26.7606 12.5773 29.2021 14.326 29.5294 16.8155C29.6551 17.7705 29.4936 18.6677 29.0476 19.5163C28.8607 19.8726 28.5994 19.9888 28.3382 19.8409C28.0797 19.6945 28.041 19.4367 28.2258 19.0853C29.2618 17.1176 28.282 14.7267 26.1685 14.0893C25.8454 13.9922 25.5012 13.9633 25.1669 13.9027Z" fill="black"/>
<path d="M34.4088 17.8948C34.1482 17.8948 33.887 17.8948 33.6264 17.8948C32.7849 17.8948 31.9435 17.8963 31.1027 17.8948C30.7143 17.8941 30.5064 17.7237 30.5113 17.4181C30.5162 17.1216 30.7178 16.9624 31.0936 16.9617C32.1191 16.961 33.1445 16.9617 34.1693 16.9617C34.2529 16.9617 34.3365 16.9617 34.4931 16.9617C34.0485 16.5173 33.6545 16.1237 33.2611 15.7293C33.1867 15.6546 33.108 15.5835 33.0441 15.5004C32.8952 15.3067 32.9092 15.0701 33.0694 14.8997C33.2366 14.7222 33.4824 14.7018 33.6882 14.8525C33.7374 14.8884 33.7802 14.9335 33.8237 14.9764C34.4994 15.6532 35.1758 16.3293 35.8494 17.0082C36.1479 17.3089 36.15 17.5427 35.8522 17.8427C35.1723 18.528 34.491 19.2111 33.8076 19.8928C33.5512 20.1484 33.2717 20.1682 33.0701 19.9555C32.8748 19.7491 32.9008 19.4886 33.1495 19.2378C33.5751 18.809 34.0036 18.3836 34.4306 17.9568C34.4229 17.9364 34.4159 17.9153 34.4081 17.8948H34.4088Z" fill="black"/>
<path d="M15.8963 17.9548C16.2791 18.3365 16.6619 18.7175 17.0447 19.0999C17.1192 19.1746 17.1971 19.2457 17.2639 19.3274C17.4303 19.5309 17.4184 19.7999 17.2421 19.9696C17.0623 20.1429 16.8003 20.1499 16.6029 19.9654C16.3536 19.7316 16.1169 19.4844 15.8752 19.2422C15.4039 18.7703 14.9319 18.3006 14.4628 17.8266C14.1825 17.5435 14.1783 17.3111 14.455 17.0315C15.1462 16.3336 15.8401 15.6385 16.5362 14.9455C16.7827 14.7005 17.0503 14.6864 17.2519 14.8934C17.4451 15.092 17.4212 15.3702 17.181 15.6125C16.7511 16.047 16.317 16.4766 15.8472 16.947C15.9855 16.9534 16.0677 16.9604 16.1506 16.9604C17.1929 16.9611 18.2352 16.9625 19.2776 16.9604C19.5311 16.9604 19.725 17.0435 19.8009 17.3048C19.8957 17.6322 19.6625 17.8928 19.2635 17.8942C18.4052 17.8985 17.5469 17.8956 16.6886 17.8956C16.435 17.8956 16.1822 17.8956 15.9286 17.8956C15.9181 17.9154 15.9076 17.9358 15.897 17.9555L15.8963 17.9548Z" fill="black"/>
</svg>
