<svg width="33" height="32" viewBox="0 0 33 32" fill="none" xmlns="http://www.w3.org/2000/svg">
<g clip-path="url(#clip0_677_10093)">
<g clip-path="url(#clip1_677_10093)">
<path d="M13.2993 0V2.58599H15.8853V3.87895C16.7904 3.74968 17.5662 3.74968 18.4713 3.87895V2.58599H21.0573V0H13.2993Z" fill="black"/>
<path d="M25.9707 8.53369L26.8758 7.62862L27.9102 8.66303L29.7204 6.85283L25.8415 2.97388L24.0313 4.78408L25.0657 5.81842L23.902 6.98211C17.6957 3.23243 9.67914 5.17191 6.0588 11.3782C2.43846 17.5846 4.37788 25.3425 10.4549 29.0922C16.532 32.8418 24.5484 30.9024 28.1688 24.696C31.4013 19.3948 30.4962 12.6713 25.9707 8.53369ZM17.1784 27.0234C12.1358 27.0234 8.12756 23.0152 8.12756 17.9725C8.12756 12.9299 12.1358 8.92159 17.1784 8.92159V17.9725H26.2293C26.2294 23.0151 22.2211 27.0234 17.1784 27.0234Z" fill="black"/>
</g>
</g>
<defs>
<clipPath id="clip0_677_10093">
<rect width="32" height="32" fill="white" transform="translate(0.666504)"/>
</clipPath>
<clipPath id="clip1_677_10093">
<rect width="31" height="31" fill="white" transform="translate(1.6665)"/>
</clipPath>
</defs>
</svg>
