<svg width="48" height="48" viewBox="0 0 48 48" fill="none" xmlns="http://www.w3.org/2000/svg">
<path d="M38.2857 12.1987H15.4732C13.9554 12.1987 13.7946 10.3446 15.0804 10.0386H38.2857C38.6161 10.0386 38.9554 10.0566 39.2857 10.1016C38.8304 6.85247 35.8393 4.59336 32.625 5.06139C32.5357 5.07039 32.4554 5.08839 32.3661 5.10639L9.78571 8.98556C9.48214 9.03056 9.16964 9.08457 8.86607 9.14757H8.84821C8.73214 9.16557 8.625 9.19257 8.50893 9.21957C5.05357 10.0566 4.04464 13.1888 4.04464 15.0788V17.2569C4.01786 17.4909 4 17.725 4 17.959V35.2397C4 38.4169 6.5625 41 9.71429 41H38.2857C41.4375 41 44 38.4169 44 35.2397V17.959C44 14.7818 41.4375 12.1987 38.2857 12.1987ZM34.0446 29.4795C32.4643 29.4795 31.1875 28.1924 31.1875 26.5994C31.1875 25.0063 32.4643 23.7192 34.0446 23.7192C35.625 23.7192 36.9018 25.0063 36.9018 26.5994C36.9018 28.1924 35.625 29.4795 34.0446 29.4795Z" fill="#BDBDBD"/>
</svg>
