<svg width="170" height="172" viewBox="0 0 170 172" fill="none" xmlns="http://www.w3.org/2000/svg">
<path d="M12.42 82H9.342L4.194 74.206V82H1.116V69.364H4.194L9.342 77.194V69.364H12.42V82ZM24.1192 76.816C24.1192 77.104 24.1012 77.404 24.0652 77.716H17.0992C17.1472 78.34 17.3452 78.82 17.6932 79.156C18.0532 79.48 18.4912 79.642 19.0072 79.642C19.7752 79.642 20.3092 79.318 20.6092 78.67H23.8852C23.7172 79.33 23.4112 79.924 22.9672 80.452C22.5352 80.98 21.9892 81.394 21.3292 81.694C20.6692 81.994 19.9312 82.144 19.1152 82.144C18.1312 82.144 17.2552 81.934 16.4872 81.514C15.7192 81.094 15.1192 80.494 14.6872 79.714C14.2552 78.934 14.0392 78.022 14.0392 76.978C14.0392 75.934 14.2492 75.022 14.6692 74.242C15.1012 73.462 15.7012 72.862 16.4692 72.442C17.2372 72.022 18.1192 71.812 19.1152 71.812C20.0872 71.812 20.9512 72.016 21.7072 72.424C22.4632 72.832 23.0512 73.414 23.4712 74.17C23.9032 74.926 24.1192 75.808 24.1192 76.816ZM20.9692 76.006C20.9692 75.478 20.7892 75.058 20.4292 74.746C20.0692 74.434 19.6192 74.278 19.0792 74.278C18.5632 74.278 18.1252 74.428 17.7652 74.728C17.4172 75.028 17.2012 75.454 17.1172 76.006H20.9692ZM40.161 71.956L37.443 82H34.041L32.457 75.484L30.819 82H27.435L24.699 71.956H27.777L29.199 79.138L30.891 71.956H34.149L35.859 79.102L37.263 71.956H40.161ZM0.594 97.664C0.594 96.416 0.864 95.306 1.404 94.334C1.944 93.35 2.694 92.588 3.654 92.048C4.626 91.496 5.724 91.22 6.948 91.22C8.448 91.22 9.732 91.616 10.8 92.408C11.868 93.2 12.582 94.28 12.942 95.648H9.558C9.306 95.12 8.946 94.718 8.478 94.442C8.022 94.166 7.5 94.028 6.912 94.028C5.964 94.028 5.196 94.358 4.608 95.018C4.02 95.678 3.726 96.56 3.726 97.664C3.726 98.768 4.02 99.65 4.608 100.31C5.196 100.97 5.964 101.3 6.912 101.3C7.5 101.3 8.022 101.162 8.478 100.886C8.946 100.61 9.306 100.208 9.558 99.68H12.942C12.582 101.048 11.868 102.128 10.8 102.92C9.732 103.7 8.448 104.09 6.948 104.09C5.724 104.09 4.626 103.82 3.654 103.28C2.694 102.728 1.944 101.966 1.404 100.994C0.864 100.022 0.594 98.912 0.594 97.664ZM19.3989 104.144C18.4149 104.144 17.5269 103.934 16.7349 103.514C15.9549 103.094 15.3369 102.494 14.8809 101.714C14.4369 100.934 14.2149 100.022 14.2149 98.978C14.2149 97.946 14.4429 97.04 14.8989 96.26C15.3549 95.468 15.9789 94.862 16.7709 94.442C17.5629 94.022 18.4509 93.812 19.4349 93.812C20.4189 93.812 21.3069 94.022 22.0989 94.442C22.8909 94.862 23.5149 95.468 23.9709 96.26C24.4269 97.04 24.6549 97.946 24.6549 98.978C24.6549 100.01 24.4209 100.922 23.9529 101.714C23.4969 102.494 22.8669 103.094 22.0629 103.514C21.2709 103.934 20.3829 104.144 19.3989 104.144ZM19.3989 101.48C19.9869 101.48 20.4849 101.264 20.8929 100.832C21.3129 100.4 21.5229 99.782 21.5229 98.978C21.5229 98.174 21.3189 97.556 20.9109 97.124C20.5149 96.692 20.0229 96.476 19.4349 96.476C18.8349 96.476 18.3369 96.692 17.9409 97.124C17.5449 97.544 17.3469 98.162 17.3469 98.978C17.3469 99.782 17.5389 100.4 17.9229 100.832C18.3189 101.264 18.8109 101.48 19.3989 101.48ZM39.1039 93.848C40.3519 93.848 41.3419 94.226 42.0739 94.982C42.8179 95.738 43.1899 96.788 43.1899 98.132V104H40.1299V98.546C40.1299 97.898 39.9559 97.4 39.6079 97.052C39.2719 96.692 38.8039 96.512 38.2039 96.512C37.6039 96.512 37.1299 96.692 36.7819 97.052C36.4459 97.4 36.2779 97.898 36.2779 98.546V104H33.2179V98.546C33.2179 97.898 33.0439 97.4 32.6959 97.052C32.3599 96.692 31.8919 96.512 31.2919 96.512C30.6919 96.512 30.2179 96.692 29.8699 97.052C29.5339 97.4 29.3659 97.898 29.3659 98.546V104H26.2879V93.956H29.3659V95.216C29.6779 94.796 30.0859 94.466 30.5899 94.226C31.0939 93.974 31.6639 93.848 32.2999 93.848C33.0559 93.848 33.7279 94.01 34.3159 94.334C34.9159 94.658 35.3839 95.12 35.7199 95.72C36.0679 95.168 36.5419 94.718 37.1419 94.37C37.7419 94.022 38.3959 93.848 39.1039 93.848ZM48.4206 95.378C48.7206 94.91 49.1346 94.532 49.6626 94.244C50.1906 93.956 50.8086 93.812 51.5166 93.812C52.3446 93.812 53.0946 94.022 53.7666 94.442C54.4386 94.862 54.9666 95.462 55.3506 96.242C55.7466 97.022 55.9446 97.928 55.9446 98.96C55.9446 99.992 55.7466 100.904 55.3506 101.696C54.9666 102.476 54.4386 103.082 53.7666 103.514C53.0946 103.934 52.3446 104.144 51.5166 104.144C50.8206 104.144 50.2026 104 49.6626 103.712C49.1346 103.424 48.7206 103.052 48.4206 102.596V108.788H45.3426V93.956H48.4206V95.378ZM52.8126 98.96C52.8126 98.192 52.5966 97.592 52.1646 97.16C51.7446 96.716 51.2226 96.494 50.5986 96.494C49.9866 96.494 49.4646 96.716 49.0326 97.16C48.6126 97.604 48.4026 98.21 48.4026 98.978C48.4026 99.746 48.6126 100.352 49.0326 100.796C49.4646 101.24 49.9866 101.462 50.5986 101.462C51.2106 101.462 51.7326 101.24 52.1646 100.796C52.5966 100.34 52.8126 99.728 52.8126 98.96ZM56.9474 98.96C56.9474 97.928 57.1394 97.022 57.5234 96.242C57.9194 95.462 58.4534 94.862 59.1254 94.442C59.7974 94.022 60.5474 93.812 61.3754 93.812C62.0834 93.812 62.7014 93.956 63.2294 94.244C63.7694 94.532 64.1834 94.91 64.4714 95.378V93.956H67.5494V104H64.4714V102.578C64.1714 103.046 63.7514 103.424 63.2114 103.712C62.6834 104 62.0654 104.144 61.3574 104.144C60.5414 104.144 59.7974 103.934 59.1254 103.514C58.4534 103.082 57.9194 102.476 57.5234 101.696C57.1394 100.904 56.9474 99.992 56.9474 98.96ZM64.4714 98.978C64.4714 98.21 64.2554 97.604 63.8234 97.16C63.4034 96.716 62.8874 96.494 62.2754 96.494C61.6634 96.494 61.1414 96.716 60.7094 97.16C60.2894 97.592 60.0794 98.192 60.0794 98.96C60.0794 99.728 60.2894 100.34 60.7094 100.796C61.1414 101.24 61.6634 101.462 62.2754 101.462C62.8874 101.462 63.4034 101.24 63.8234 100.796C64.2554 100.352 64.4714 99.746 64.4714 98.978ZM69.1642 98.978C69.1642 97.934 69.3742 97.022 69.7942 96.242C70.2262 95.462 70.8202 94.862 71.5762 94.442C72.3442 94.022 73.2202 93.812 74.2042 93.812C75.4642 93.812 76.5142 94.142 77.3542 94.802C78.2062 95.462 78.7642 96.392 79.0282 97.592H75.7522C75.4762 96.824 74.9422 96.44 74.1502 96.44C73.5862 96.44 73.1362 96.662 72.8002 97.106C72.4642 97.538 72.2962 98.162 72.2962 98.978C72.2962 99.794 72.4642 100.424 72.8002 100.868C73.1362 101.3 73.5862 101.516 74.1502 101.516C74.9422 101.516 75.4762 101.132 75.7522 100.364H79.0282C78.7642 101.54 78.2062 102.464 77.3542 103.136C76.5022 103.808 75.4522 104.144 74.2042 104.144C73.2202 104.144 72.3442 103.934 71.5762 103.514C70.8202 103.094 70.2262 102.494 69.7942 101.714C69.3742 100.934 69.1642 100.022 69.1642 98.978ZM86.2726 101.39V104H84.7066C83.5906 104 82.7206 103.73 82.0966 103.19C81.4726 102.638 81.1606 101.744 81.1606 100.508V96.512H79.9366V93.956H81.1606V91.508H84.2386V93.956H86.2546V96.512H84.2386V100.544C84.2386 100.844 84.3106 101.06 84.4546 101.192C84.5986 101.324 84.8386 101.39 85.1746 101.39H86.2726ZM5.85 113.364C7.182 113.364 8.346 113.628 9.342 114.156C10.338 114.684 11.106 115.428 11.646 116.388C12.198 117.336 12.474 118.434 12.474 119.682C12.474 120.918 12.198 122.016 11.646 122.976C11.106 123.936 10.332 124.68 9.324 125.208C8.328 125.736 7.17 126 5.85 126H1.116V113.364H5.85ZM5.652 123.336C6.816 123.336 7.722 123.018 8.37 122.382C9.018 121.746 9.342 120.846 9.342 119.682C9.342 118.518 9.018 117.612 8.37 116.964C7.722 116.316 6.816 115.992 5.652 115.992H4.194V123.336H5.652ZM23.6621 120.816C23.6621 121.104 23.6441 121.404 23.6081 121.716H16.6421C16.6901 122.34 16.8881 122.82 17.2361 123.156C17.5961 123.48 18.0341 123.642 18.5501 123.642C19.3181 123.642 19.8521 123.318 20.1521 122.67H23.4281C23.2601 123.33 22.9541 123.924 22.5101 124.452C22.0781 124.98 21.5321 125.394 20.8721 125.694C20.2121 125.994 19.4741 126.144 18.6581 126.144C17.6741 126.144 16.7981 125.934 16.0301 125.514C15.2621 125.094 14.6621 124.494 14.2301 123.714C13.7981 122.934 13.5821 122.022 13.5821 120.978C13.5821 119.934 13.7921 119.022 14.2121 118.242C14.6441 117.462 15.2441 116.862 16.0121 116.442C16.7801 116.022 17.6621 115.812 18.6581 115.812C19.6301 115.812 20.4941 116.016 21.2501 116.424C22.0061 116.832 22.5941 117.414 23.0141 118.17C23.4461 118.926 23.6621 119.808 23.6621 120.816ZM20.5121 120.006C20.5121 119.478 20.3321 119.058 19.9721 118.746C19.6121 118.434 19.1621 118.278 18.6221 118.278C18.1061 118.278 17.6681 118.428 17.3081 118.728C16.9601 119.028 16.7441 119.454 16.6601 120.006H20.5121ZM29.3719 126.144C28.4959 126.144 27.7159 125.994 27.0319 125.694C26.3479 125.394 25.8079 124.986 25.4119 124.47C25.0159 123.942 24.7939 123.354 24.7459 122.706H27.7879C27.8239 123.054 27.9859 123.336 28.2739 123.552C28.5619 123.768 28.9159 123.876 29.3359 123.876C29.7199 123.876 30.0139 123.804 30.2179 123.66C30.4339 123.504 30.5419 123.306 30.5419 123.066C30.5419 122.778 30.3919 122.568 30.0919 122.436C29.7919 122.292 29.3059 122.136 28.6339 121.968C27.9139 121.8 27.3139 121.626 26.8339 121.446C26.3539 121.254 25.9399 120.96 25.5919 120.564C25.2439 120.156 25.0699 119.61 25.0699 118.926C25.0699 118.35 25.2259 117.828 25.5379 117.36C25.8619 116.88 26.3299 116.502 26.9419 116.226C27.5659 115.95 28.3039 115.812 29.1559 115.812C30.4159 115.812 31.4059 116.124 32.1259 116.748C32.8579 117.372 33.2779 118.2 33.3859 119.232H30.5419C30.4939 118.884 30.3379 118.608 30.0739 118.404C29.8219 118.2 29.4859 118.098 29.0659 118.098C28.7059 118.098 28.4299 118.17 28.2379 118.314C28.0459 118.446 27.9499 118.632 27.9499 118.872C27.9499 119.16 28.0999 119.376 28.3999 119.52C28.7119 119.664 29.1919 119.808 29.8399 119.952C30.5839 120.144 31.1899 120.336 31.6579 120.528C32.1259 120.708 32.5339 121.008 32.8819 121.428C33.2419 121.836 33.4279 122.388 33.4399 123.084C33.4399 123.672 33.2719 124.2 32.9359 124.668C32.6119 125.124 32.1379 125.484 31.5139 125.748C30.9019 126.012 30.1879 126.144 29.3719 126.144ZM36.871 114.912C36.331 114.912 35.887 114.756 35.539 114.444C35.203 114.12 35.035 113.724 35.035 113.256C35.035 112.776 35.203 112.38 35.539 112.068C35.887 111.744 36.331 111.582 36.871 111.582C37.399 111.582 37.831 111.744 38.167 112.068C38.515 112.38 38.689 112.776 38.689 113.256C38.689 113.724 38.515 114.12 38.167 114.444C37.831 114.756 37.399 114.912 36.871 114.912ZM38.401 115.956V126H35.323V115.956H38.401ZM44.4476 115.812C45.1556 115.812 45.7736 115.956 46.3016 116.244C46.8416 116.532 47.2556 116.91 47.5436 117.378V115.956H50.6216V125.982C50.6216 126.906 50.4356 127.74 50.0636 128.484C49.7036 129.24 49.1456 129.84 48.3896 130.284C47.6456 130.728 46.7156 130.95 45.5996 130.95C44.1116 130.95 42.9056 130.596 41.9816 129.888C41.0576 129.192 40.5296 128.244 40.3976 127.044H43.4396C43.5356 127.428 43.7636 127.728 44.1236 127.944C44.4836 128.172 44.9276 128.286 45.4556 128.286C46.0916 128.286 46.5956 128.1 46.9676 127.728C47.3516 127.368 47.5436 126.786 47.5436 125.982V124.56C47.2436 125.028 46.8296 125.412 46.3016 125.712C45.7736 126 45.1556 126.144 44.4476 126.144C43.6196 126.144 42.8696 125.934 42.1976 125.514C41.5256 125.082 40.9916 124.476 40.5956 123.696C40.2116 122.904 40.0196 121.992 40.0196 120.96C40.0196 119.928 40.2116 119.022 40.5956 118.242C40.9916 117.462 41.5256 116.862 42.1976 116.442C42.8696 116.022 43.6196 115.812 44.4476 115.812ZM47.5436 120.978C47.5436 120.21 47.3276 119.604 46.8956 119.16C46.4756 118.716 45.9596 118.494 45.3476 118.494C44.7356 118.494 44.2136 118.716 43.7816 119.16C43.3616 119.592 43.1516 120.192 43.1516 120.96C43.1516 121.728 43.3616 122.34 43.7816 122.796C44.2136 123.24 44.7356 123.462 45.3476 123.462C45.9596 123.462 46.4756 123.24 46.8956 122.796C47.3276 122.352 47.5436 121.746 47.5436 120.978ZM58.9684 115.848C60.1444 115.848 61.0804 116.232 61.7764 117C62.4844 117.756 62.8384 118.8 62.8384 120.132V126H59.7784V120.546C59.7784 119.874 59.6044 119.352 59.2564 118.98C58.9084 118.608 58.4404 118.422 57.8524 118.422C57.2644 118.422 56.7964 118.608 56.4484 118.98C56.1004 119.352 55.9264 119.874 55.9264 120.546V126H52.8484V115.956H55.9264V117.288C56.2384 116.844 56.6584 116.496 57.1864 116.244C57.7144 115.98 58.3084 115.848 58.9684 115.848Z" fill="#2E3A4B"/>
<g clip-path="url(#clip0_2001_2)">
<path d="M19.7008 60.2461C20.0184 60.4786 19.9579 60.1589 20.0342 59.7468C20.1902 58.877 20.1022 57.9124 20.0689 57.0359C20.0849 57.3905 20.099 56.0734 20.0968 56.1421C20.1252 55.5942 20.1791 55.0481 20.2441 54.5042C20.3885 53.2432 20.6119 51.9913 20.9077 50.753C21.4949 48.2698 22.3415 45.8468 23.4242 43.5287C25.6308 38.8021 28.8376 34.5485 32.8391 31.1761C40.2193 24.9482 49.9889 21.9179 59.5279 22.6105L59.024 26.7634L76.5203 19.6075L61.2416 8.42913L60.6395 13.3935C52.22 12.3721 43.5111 14.2962 36.277 18.834C28.9906 23.4024 23.5541 30.6147 20.8995 38.7352C19.2199 43.8604 18.8342 49.1593 18.9884 54.5019C19.0232 55.7043 19.1214 56.9215 19.2742 58.1114C19.3 58.3007 19.4189 60.0376 19.7008 60.2461Z" fill="#2E3A4B"/>
</g>
<defs>
<clipPath id="clip0_2001_2">
<rect width="69.844" height="25.2214" fill="white" transform="matrix(0.828543 -0.559925 -0.559925 -0.828543 19.7866 60.3948)"/>
</clipPath>
</defs>
</svg>
